<svg width="1440" height="900" viewBox="0 0 1440 900" fill="none" xmlns="http://www.w3.org/2000/svg">
<g clip-path="url(#clip0)">
<rect width="1440" height="900" fill="#FBF8F8"/>
<line y1="-0.5" x2="234.019" y2="-0.5" transform="translate(-69 851) rotate(-53.8646)" stroke="black"/>
<line y1="-0.5" x2="234.019" y2="-0.5" transform="translate(824 995) rotate(-53.8646)" stroke="black"/>
<line y1="-0.125" x2="234.019" y2="-0.125" transform="translate(1393 289) rotate(-53.8646)" stroke="black" stroke-width="0.25"/>
<line y1="-0.125" x2="234.019" y2="-0.125" transform="translate(496 132) rotate(-53.8646)" stroke="black" stroke-width="0.25"/>
<line y1="-0.125" x2="234.019" y2="-0.125" transform="translate(754 1048) rotate(-53.8646)" stroke="black" stroke-width="0.25"/>
<line y1="-0.125" x2="30" y2="-0.125" transform="translate(899 849.229) rotate(-53.8646)" stroke="black" stroke-width="0.25"/>
<line y1="-0.125" x2="30" y2="-0.125" transform="translate(927 812.229) rotate(-53.8646)" stroke="black" stroke-width="0.25"/>
<line y1="-0.125" x2="30" y2="-0.125" transform="translate(953 776.229) rotate(-53.8646)" stroke="black" stroke-width="0.25"/>
<line y1="-0.125" x2="234.019" y2="-0.125" transform="translate(-128 960) rotate(-53.8646)" stroke="black" stroke-width="0.25"/>
<line y1="-0.125" x2="15" y2="-0.125" transform="translate(12 768.114) rotate(-53.8646)" stroke="black" stroke-width="0.25"/>
<path d="M0 0L15 0" transform="translate(23 753.114) rotate(-53.8646)" stroke="black" stroke-width="0.25"/>
<path d="M0 0L15 0" transform="translate(34 737.114) rotate(-53.8646)" stroke="black" stroke-width="0.25"/>
<path d="M0 0L15 0" transform="translate(46 721.114) rotate(-53.8646)" stroke="black" stroke-width="0.25"/>
<line y1="-0.5" x2="234.019" y2="-0.5" transform="translate(1350 309) rotate(-53.8646)" stroke="black"/>
<line y1="-0.5" x2="234.019" y2="-0.5" transform="translate(531 37) rotate(-53.8646)" stroke="black"/>
<line y1="-0.5" x2="100" y2="-0.5" transform="translate(453 140.763) rotate(-53.8646)" stroke="black"/>
<path d="M2.22868 0.251335C2.13911 -1.5438 0.170765 6.78573 0 9.11832H4.90338C2.85421 9.11832 2.41406 3.96635 2.22868 0.251335Z" transform="matrix(0.984604 0.174798 -0.172505 0.985009 59.8645 58.6904)" fill="#5FA193"/>
<path d="M2.58436 0.245744C2.50126 -1.65489 0.158405 8.01574 0 10.4854C2.14978 10.4854 5.16079 11.2481 4.58117 10.3645C2.73122 7.5444 2.75631 4.1791 2.58436 0.245744Z" transform="matrix(0.994447 0.105235 -0.103827 0.994595 70.1829 48.4227)" fill="#5FA193"/>
<path d="M0.344146 20.8371C-1.16836 26.467 2.57854 30.6433 6.24523 31.6239C8.70877 32.6622 13.8475 30.9833 17.0558 29.022C20.2642 27.0608 21.6965 26.7147 24.6756 27.753C27.6548 28.7913 32.0223 29.9138 34.2037 29.5473C36.5702 29.1496 41.2506 28.0476 43.1412 25.048C45.0318 22.0485 42.5683 13.396 37.0683 6.53168C32.1648 0.411883 20.6255 -0.563367 17.2453 0.2442C14.3982 0.924378 8.74848 4.3974 5.13909 9.30048C2.25158 13.2229 1.48928 16.5747 0.344146 20.8371Z" transform="translate(59.8381 75.059)" fill="#5FA193"/>
<path d="M6.91781 7.82626C6.91781 7.96188 5.65328 11.6002 4.21446 12.47C4.21446 13.1933 1.59632 12.976 1.12813 12.2527C0.65995 11.5294 0.132186 9.12239 0.0541554 7.04286C-0.0238751 4.96334 -0.21075 2.60482 1.18257 0.864366C2.04902 -0.217945 3.79659 -0.356226 5.5913 0.864366C7.386 2.08496 6.91781 7.69064 6.91781 7.82626Z" transform="matrix(0.997531 -0.0702307 0.0692854 0.997597 56 72.6779)" fill="#5FA193"/>
<path d="M8.48365 10.2172C8.48365 10.6798 7.64488 14.8203 4.02768 13.3292C2.76952 12.8105 2.37418 12.4894 0.939255 8.58516C-1.62652 1.604 1.76812 0.548594 2.78536 0.0860581C3.8026 -0.376478 5.091 1.04507 6.3343 3.87811C7.57759 6.71114 8.48365 9.75471 8.48365 10.2172Z" transform="matrix(0.926293 0.376803 -0.372418 0.928065 69.1555 60.9518)" fill="#5FA193"/>
<path d="M0.071013 5.64529C-0.053538 4.38158 -0.0720866 3.12171 0.506913 1.68566C0.880558 0.758943 2.41247 0.000717305 3.06011 0.000717305C3.86965 0.000717305 4.7986 -0.0815928 5.80012 1.51717C6.54885 2.71241 7.12929 5.36144 7.29467 5.98228C7.86485 8.1228 7.60603 9.52067 7.29467 10.6159C6.9833 11.7111 5.55102 12.4693 4.6792 12.6378C3.80738 12.8063 2.52765 11.6755 2.31284 11.3741C1.84502 10.7178 0.301468 7.98352 0.071013 5.64529Z" transform="matrix(0.965483 0.260468 -0.257179 0.966364 79.7651 57.8828)" fill="#5FA193"/>
<path d="M4.87031 10.8434C4.02994 10.4973 2.15439 9.80517 0 9.80517C0.69367 6.19164 1.48974 2.20759 2.97948 0.288394L3.43786 0C4.62965 1.70726 4.8894 7.94027 4.87031 10.8434Z" transform="matrix(0.992445 -0.122689 0.121055 0.992646 78.1147 46.5977)" fill="#5FA193"/>
<path d="M0.50531 5.79241C0.203621 4.55917 -0.317829 3.14141 0.261106 1.7052C0.63471 0.778379 1.8266 0 2.47417 0C3.28363 0 4.45488 0.82328 5.08026 1.66954C5.70565 2.5158 6.41241 3.64517 7.09733 5.75159C7.78226 7.858 7.84205 9.69408 7.53072 10.7894C7.21939 11.8848 5.33275 11.8366 4.46102 12.0052C3.5893 12.1737 2.91363 11.6999 2.23155 10.9972C1.57071 10.3163 1.26681 8.90525 0.50531 5.79241Z" transform="matrix(0.974032 0.226409 -0.223501 0.974704 90.3159 63.1896)" fill="#5FA193"/>
<path d="M5.30237 10.8382C4.4616 10.4923 2.15544 9.74742 5.13617e-06 9.74742C1.95918 7.07974 2.64344 6.46724 2.79714 5.2084L3.86924 0C5.0616 1.70644 5.32148 7.93647 5.30237 10.8382Z" transform="matrix(0.955745 -0.294197 0.290556 0.956858 86.7085 52.8671)" fill="#5FA193"/>
<path d="M0.454924 5.52072C0.153235 4.28748 -0.299471 3.14141 0.279463 1.7052C0.653067 0.778379 1.84496 0 2.49253 0C3.30199 0 4.47323 0.82328 5.09862 1.66954C5.72401 2.5158 6.43076 3.64517 7.11569 5.75159C7.80061 7.858 7.8604 9.69408 7.54908 10.7894C7.23775 11.8848 5.24454 12.0118 4.41152 11.7033C3.57738 11.3944 2.8932 10.8541 2.21111 10.1514C1.54834 9.46854 1.21642 8.63356 0.454924 5.52072Z" transform="matrix(0.974032 0.226409 -0.223501 0.974704 100.471 72.3036)" fill="#5FA193"/>
<path d="M5.19343 10.3126C4.35286 9.96667 2.15493 9.1063 5.70443e-06 9.1063C1.95871 6.43799 2.16508 5.86568 2.31874 4.60654L3.08947 0C4.28155 1.70684 5.21253 7.41025 5.19343 10.3126Z" transform="matrix(0.974032 -0.226409 0.223501 0.974704 98.2815 62.0582)" fill="#5FA193"/>
<rect width="1.28334" height="5.91763" rx="0.641669" transform="translate(81.1855 82.802)" fill="#F2F4F4"/>
<path d="M3.89585 0C1.55834 0 0 2.72766 0 4.993C0 7.92928 2.35984 10.3096 5.27085 10.3096C8.18187 10.3096 10.5417 7.92928 10.5417 4.993C10.5417 2.68142 9.12087 0 6.64586 0" transform="translate(76.5105 85.0673)" stroke="#F2F4F4" stroke-width="2"/>
<path d="M2.22868 0.251335C2.13911 -1.5438 0.170765 6.78573 0 9.11832H4.90338C2.85421 9.11832 2.41406 3.96635 2.22868 0.251335Z" transform="matrix(0.984604 0.174798 -0.172505 0.985009 59.8645 58.6904)" fill="#469987"/>
<path d="M2.58436 0.245744C2.50126 -1.65489 0.158405 8.01574 0 10.4854C2.14978 10.4854 5.16079 11.2481 4.58117 10.3645C2.73122 7.5444 2.75631 4.1791 2.58436 0.245744Z" transform="matrix(0.994447 0.105235 -0.103827 0.994595 70.1829 48.4227)" fill="#469987"/>
<path d="M0.344146 20.8371C-1.16836 26.467 2.57854 30.6433 6.24523 31.6239C8.70877 32.6622 13.8475 30.9833 17.0558 29.022C20.2642 27.0608 21.6965 26.7147 24.6756 27.753C27.6548 28.7913 32.0223 29.9138 34.2037 29.5473C36.5702 29.1496 41.2506 28.0476 43.1412 25.048C45.0318 22.0485 42.5683 13.396 37.0683 6.53168C32.1648 0.411883 20.6255 -0.563367 17.2453 0.2442C14.3982 0.924378 8.74848 4.3974 5.13909 9.30048C2.25158 13.2229 1.48928 16.5747 0.344146 20.8371Z" transform="translate(59.8381 75.059)" fill="#469987"/>
<path d="M6.91781 7.82626C6.91781 7.96188 5.65328 11.6002 4.21446 12.47C4.21446 13.1933 1.59632 12.976 1.12813 12.2527C0.65995 11.5294 0.132186 9.12239 0.0541554 7.04286C-0.0238751 4.96334 -0.21075 2.60482 1.18257 0.864366C2.04902 -0.217945 3.79659 -0.356226 5.5913 0.864366C7.386 2.08496 6.91781 7.69064 6.91781 7.82626Z" transform="matrix(0.997531 -0.0702307 0.0692854 0.997597 56 72.6779)" fill="#469987"/>
<path d="M8.48365 10.2172C8.48365 10.6798 7.64488 14.8203 4.02768 13.3292C2.76952 12.8105 2.37418 12.4894 0.939255 8.58516C-1.62652 1.604 1.76812 0.548594 2.78536 0.0860581C3.8026 -0.376478 5.091 1.04507 6.3343 3.87811C7.57759 6.71114 8.48365 9.75471 8.48365 10.2172Z" transform="matrix(0.926293 0.376803 -0.372418 0.928065 69.1555 60.9518)" fill="#469987"/>
<path d="M0.071013 5.64529C-0.053538 4.38158 -0.0720866 3.12171 0.506913 1.68566C0.880558 0.758943 2.41247 0.000717305 3.06011 0.000717305C3.86965 0.000717305 4.7986 -0.0815928 5.80012 1.51717C6.54885 2.71241 7.12929 5.36144 7.29467 5.98228C7.86485 8.1228 7.60603 9.52067 7.29467 10.6159C6.9833 11.7111 5.55102 12.4693 4.6792 12.6378C3.80738 12.8063 2.52765 11.6755 2.31284 11.3741C1.84502 10.7178 0.301468 7.98352 0.071013 5.64529Z" transform="matrix(0.965483 0.260468 -0.257179 0.966364 79.7651 57.8828)" fill="#469987"/>
<path d="M4.87031 10.8434C4.02994 10.4973 2.15439 9.80517 0 9.80517C0.69367 6.19164 1.48974 2.20759 2.97948 0.288394L3.43786 0C4.62965 1.70726 4.8894 7.94027 4.87031 10.8434Z" transform="matrix(0.992445 -0.122689 0.121055 0.992646 78.1147 46.5977)" fill="#469987"/>
<path d="M0.50531 5.79241C0.203621 4.55917 -0.317829 3.14141 0.261106 1.7052C0.63471 0.778379 1.8266 0 2.47417 0C3.28363 0 4.45488 0.82328 5.08026 1.66954C5.70565 2.5158 6.41241 3.64517 7.09733 5.75159C7.78226 7.858 7.84205 9.69408 7.53072 10.7894C7.21939 11.8848 5.33275 11.8366 4.46102 12.0052C3.5893 12.1737 2.91363 11.6999 2.23155 10.9972C1.57071 10.3163 1.26681 8.90525 0.50531 5.79241Z" transform="matrix(0.974032 0.226409 -0.223501 0.974704 90.3159 63.1896)" fill="#469987"/>
<path d="M5.30237 10.8382C4.4616 10.4923 2.15544 9.74742 5.13617e-06 9.74742C1.95918 7.07974 2.64344 6.46724 2.79714 5.2084L3.86924 0C5.0616 1.70644 5.32148 7.93647 5.30237 10.8382Z" transform="matrix(0.955745 -0.294197 0.290556 0.956858 86.7085 52.8671)" fill="#469987"/>
<path d="M0.454924 5.52072C0.153235 4.28748 -0.299471 3.14141 0.279463 1.7052C0.653067 0.778379 1.84496 0 2.49253 0C3.30199 0 4.47323 0.82328 5.09862 1.66954C5.72401 2.5158 6.43076 3.64517 7.11569 5.75159C7.80061 7.858 7.8604 9.69408 7.54908 10.7894C7.23775 11.8848 5.24454 12.0118 4.41152 11.7033C3.57738 11.3944 2.8932 10.8541 2.21111 10.1514C1.54834 9.46854 1.21642 8.63356 0.454924 5.52072Z" transform="matrix(0.974032 0.226409 -0.223501 0.974704 100.471 72.3036)" fill="#469987"/>
<path d="M5.19343 10.3126C4.35286 9.96667 2.15493 9.1063 5.70443e-06 9.1063C1.95871 6.43799 2.16508 5.86568 2.31874 4.60654L3.08947 0C4.28155 1.70684 5.21253 7.41025 5.19343 10.3126Z" transform="matrix(0.974032 -0.226409 0.223501 0.974704 98.2815 62.0582)" fill="#469987"/>
<rect width="1.28334" height="5.91763" rx="0.641669" transform="translate(81.1855 82.802)" fill="#F2F4F4"/>
<path d="M3.89585 0C1.55834 0 0 2.72766 0 4.993C0 7.92928 2.35984 10.3096 5.27085 10.3096C8.18187 10.3096 10.5417 7.92928 10.5417 4.993C10.5417 2.68142 9.12087 0 6.64586 0" transform="translate(76.5105 85.0673)" stroke="#F2F4F4" stroke-width="2"/>
<path d="M36.8774 83.3062C36.8774 89.6457 35.2694 94.5008 32.0532 97.8716C28.868 101.242 24.2603 102.928 18.23 102.928C12.3234 102.928 7.29818 101.768 3.1543 99.4487V86.9707C8.22591 90.2796 12.88 91.9341 17.1167 91.9341C19.5288 91.9341 21.3379 91.2692 22.5439 89.9395C23.7809 88.6097 24.3994 86.8006 24.3994 84.5122C24.3994 82.2547 23.6727 80.1982 22.2192 78.3428C20.7658 76.4564 18.3691 74.369 15.0293 72.0806C12.1224 70.0705 9.9113 68.1532 8.396 66.3286C6.91162 64.4731 5.75195 62.4012 4.91699 60.1128C4.11296 57.8244 3.71094 55.1649 3.71094 52.1343C3.71094 46.3205 5.31901 41.7127 8.53516 38.311C11.7822 34.9093 16.1271 33.2085 21.5698 33.2085C26.7651 33.2085 31.7594 34.6619 36.5527 37.5688L32.3779 47.6812C30.8936 46.8153 29.3319 46.0422 27.6929 45.3618C26.0848 44.6815 24.353 44.3413 22.4976 44.3413C20.4565 44.3413 18.8794 45.0216 17.7661 46.3823C16.6838 47.7121 16.1426 49.5366 16.1426 51.856C16.1426 54.1444 16.792 56.139 18.0908 57.8398C19.4206 59.5407 21.7244 61.4735 25.0024 63.6382C29.4246 66.6069 32.5016 69.6375 34.2334 72.73C35.9961 75.8224 36.8774 79.3478 36.8774 83.3062ZM65.2865 92.4907C67.0183 92.4907 68.8892 92.0578 70.8993 91.1919V100.84C68.8892 102.232 65.8741 102.928 61.8539 102.928C57.3699 102.928 54.0455 101.598 51.8808 98.9385C49.716 96.248 48.6337 92.2279 48.6337 86.8779V60.1128H43.6239V54.5928L50.0717 50.1396L53.226 39.1924H61.1117V50.3252H70.4818V60.1128H61.1117V87.2954C61.1117 90.759 62.5033 92.4907 65.2865 92.4907ZM106.313 102L103.854 94.9492H103.576C101.751 97.9798 99.865 100.067 97.9168 101.211C95.9686 102.356 93.5101 102.928 90.5413 102.928C86.7376 102.928 83.7379 101.505 81.5423 98.6602C79.3776 95.8151 78.2952 91.8568 78.2952 86.7852C78.2952 81.3424 79.7796 77.3068 82.7483 74.6782C85.748 72.0187 90.2166 70.5498 96.1541 70.2715L103.019 69.9932V66.2822C103.019 61.458 100.932 59.0459 96.7571 59.0459C93.6647 59.0459 90.1084 60.252 86.0882 62.6641L81.8206 54.1289C86.9541 50.8818 92.5359 49.2583 98.5662 49.2583C104.04 49.2583 108.199 50.8354 111.044 53.9897C113.92 57.1131 115.358 61.5508 115.358 67.3027V102H106.313ZM95.5975 93.2793C97.8549 93.2793 99.6486 92.2743 100.978 90.2642C102.339 88.2231 103.019 85.5173 103.019 82.1465V77.7861L99.2156 77.9717C96.4015 78.1263 94.3296 78.9303 92.9998 80.3838C91.701 81.8372 91.0516 84.002 91.0516 86.8779C91.0516 91.1455 92.5669 93.2793 95.5975 93.2793ZM150.215 49.3511C151.73 49.3511 153.215 49.583 154.668 50.0469L153.23 62.0146C152.364 61.7054 151.236 61.5508 149.844 61.5508C146.844 61.5508 144.54 62.7414 142.932 65.1226C141.324 67.4728 140.52 70.9054 140.52 75.4204V102H128.181V50.3252H138.34L139.732 58.3965H140.149C141.51 55.1494 142.994 52.8301 144.602 51.4385C146.21 50.0469 148.081 49.3511 150.215 49.3511ZM180.99 92.4907C182.722 92.4907 184.593 92.0578 186.603 91.1919V100.84C184.593 102.232 181.577 102.928 177.557 102.928C173.073 102.928 169.749 101.598 167.584 98.9385C165.419 96.248 164.337 92.2279 164.337 86.8779V60.1128H159.327V54.5928L165.775 50.1396L168.929 39.1924H176.815V50.3252H186.185V60.1128H176.815V87.2954C176.815 90.759 178.207 92.4907 180.99 92.4907ZM224.614 102L223.083 95.3667H222.434C221.289 97.717 219.65 99.5724 217.517 100.933C215.414 102.263 213.002 102.928 210.28 102.928C205.642 102.928 202.132 101.351 199.75 98.1963C197.369 95.042 196.179 90.326 196.179 84.0483V50.3252H208.657V81.0796C208.657 84.8524 209.105 87.6974 210.002 89.6147C210.899 91.5321 212.352 92.4907 214.362 92.4907C217.022 92.4907 218.955 91.161 220.161 88.5015C221.398 85.842 222.016 81.3734 222.016 75.0957V50.3252H234.494V102H224.614ZM270.743 102.928C268.516 102.928 266.537 102.433 264.805 101.443C263.104 100.423 261.512 98.6447 260.027 96.1089H259.378C259.873 100.315 260.12 102.85 260.12 103.716V124.822H247.688V50.3252H257.244L259.378 57.0513H259.934C262.501 51.9178 266.228 49.3511 271.114 49.3511C275.814 49.3511 279.494 51.6859 282.154 56.3555C284.813 60.9941 286.143 67.5656 286.143 76.0698C286.143 84.4504 284.767 91.0218 282.015 95.7842C279.262 100.547 275.505 102.928 270.743 102.928ZM266.939 59.8345C264.527 59.8345 262.78 60.9632 261.697 63.2207C260.646 65.4473 260.089 69.1582 260.027 74.3535V75.9771C260.027 81.6672 260.568 85.811 261.651 88.4087C262.733 91.0063 264.527 92.3052 267.032 92.3052C271.361 92.3052 273.526 86.8315 273.526 75.8843C273.526 70.5034 272.985 66.4832 271.902 63.8237C270.851 61.1642 269.196 59.8345 266.939 59.8345ZM337.256 102H324.731V34.1826H355.114V45.0835H337.256V63.9165H353.908V74.8174H337.256V102ZM391.038 102L388.58 94.9492H388.301C386.477 97.9798 384.59 100.067 382.642 101.211C380.694 102.356 378.235 102.928 375.267 102.928C371.463 102.928 368.463 101.505 366.268 98.6602C364.103 95.8151 363.021 91.8568 363.021 86.7852C363.021 81.3424 364.505 77.3068 367.474 74.6782C370.473 72.0187 374.942 70.5498 380.879 70.2715L387.745 69.9932V66.2822C387.745 61.458 385.657 59.0459 381.483 59.0459C378.39 59.0459 374.834 60.252 370.814 62.6641L366.546 54.1289C371.679 50.8818 377.261 49.2583 383.292 49.2583C388.765 49.2583 392.925 50.8354 395.77 53.9897C398.646 57.1131 400.084 61.5508 400.084 67.3027V102H391.038ZM380.323 93.2793C382.58 93.2793 384.374 92.2743 385.704 90.2642C387.064 88.2231 387.745 85.5173 387.745 82.1465V77.7861L383.941 77.9717C381.127 78.1263 379.055 78.9303 377.725 80.3838C376.426 81.8372 375.777 84.002 375.777 86.8779C375.777 91.1455 377.292 93.2793 380.323 93.2793ZM425.338 102H413V50.3252H425.338V102ZM412.489 36.8267C412.489 34.7856 413.077 33.1776 414.252 32.0024C415.458 30.7964 417.128 30.1934 419.262 30.1934C421.272 30.1934 422.88 30.7964 424.086 32.0024C425.292 33.1776 425.895 34.7856 425.895 36.8267C425.895 38.9295 425.277 40.5685 424.04 41.7437C422.803 42.8879 421.21 43.46 419.262 43.46C417.221 43.46 415.582 42.8879 414.345 41.7437C413.108 40.5685 412.489 38.9295 412.489 36.8267ZM460.798 49.3511C462.314 49.3511 463.798 49.583 465.251 50.0469L463.813 62.0146C462.947 61.7054 461.819 61.5508 460.427 61.5508C457.427 61.5508 455.124 62.7414 453.516 65.1226C451.907 67.4728 451.103 70.9054 451.103 75.4204V102H438.765V50.3252H448.923L450.315 58.3965H450.732C452.093 55.1494 453.577 52.8301 455.185 51.4385C456.793 50.0469 458.664 49.3511 460.798 49.3511ZM500.685 102V34.1826H513.302V90.96H530.79V102H500.685ZM573.857 102L569.961 84.8833H552.288L548.391 102H535.774L552.566 33.9043H569.683L586.521 102H573.857ZM567.595 73.7041L563.977 57.9326C563.761 56.974 563.266 54.5773 562.493 50.7427C561.751 46.8771 561.302 44.2949 561.148 42.9961C560.746 45.6556 560.235 48.5934 559.617 51.8096C558.998 54.9948 557.39 62.293 554.793 73.7041H567.595Z" transform="translate(159 267)" fill="black"/>
<path d="M8.54004 19.6709C8.54004 21.139 8.16764 22.2633 7.42285 23.0439C6.68522 23.8245 5.61816 24.2148 4.22168 24.2148C2.85384 24.2148 1.6901 23.9463 0.730469 23.4092V20.5195C1.90495 21.2858 2.98275 21.6689 3.96387 21.6689C4.52246 21.6689 4.94141 21.515 5.2207 21.207C5.50716 20.8991 5.65039 20.4801 5.65039 19.9502C5.65039 19.4274 5.4821 18.9512 5.14551 18.5215C4.80892 18.0846 4.25391 17.6012 3.48047 17.0713C2.80729 16.6058 2.29525 16.1618 1.94434 15.7393C1.60059 15.3096 1.33203 14.8298 1.13867 14.2998C0.952474 13.7699 0.859375 13.154 0.859375 12.4521C0.859375 11.1058 1.23177 10.0387 1.97656 9.25098C2.72852 8.46322 3.7347 8.06934 4.99512 8.06934C6.19824 8.06934 7.35482 8.40592 8.46484 9.0791L7.49805 11.4209C7.1543 11.2204 6.79264 11.0413 6.41309 10.8838C6.04069 10.7262 5.63965 10.6475 5.20996 10.6475C4.7373 10.6475 4.37207 10.805 4.11426 11.1201C3.86361 11.4281 3.73828 11.8506 3.73828 12.3877C3.73828 12.9176 3.88867 13.3796 4.18945 13.7734C4.4974 14.1673 5.03092 14.6149 5.79004 15.1162C6.81413 15.8037 7.52669 16.5055 7.92773 17.2217C8.33594 17.9378 8.54004 18.7542 8.54004 19.6709ZM15.119 21.7979C15.52 21.7979 15.9533 21.6976 16.4188 21.4971V23.7314C15.9533 24.0537 15.2551 24.2148 14.3241 24.2148C13.2857 24.2148 12.5158 23.9069 12.0145 23.291C11.5132 22.668 11.2625 21.737 11.2625 20.498V14.2998H10.1024V13.0215L11.5955 11.9902L12.326 9.45508H14.1522V12.0332H16.3221V14.2998H14.1522V20.5947C14.1522 21.3968 14.4745 21.7979 15.119 21.7979ZM24.6198 24L24.0505 22.3672H23.986C23.5635 23.069 23.1266 23.5524 22.6755 23.8174C22.2243 24.0824 21.655 24.2148 20.9675 24.2148C20.0866 24.2148 19.3919 23.8854 18.8835 23.2266C18.3822 22.5677 18.1315 21.651 18.1315 20.4766C18.1315 19.2161 18.4753 18.2816 19.1628 17.6729C19.8574 17.057 20.8923 16.7168 22.2673 16.6523L23.8571 16.5879V15.7285C23.8571 14.6113 23.3737 14.0527 22.4069 14.0527C21.6908 14.0527 20.8672 14.332 19.9362 14.8906L18.9479 12.9141C20.1367 12.1621 21.4294 11.7861 22.8259 11.7861C24.0934 11.7861 25.0567 12.1514 25.7155 12.8818C26.3815 13.6051 26.7145 14.6328 26.7145 15.9648V24H24.6198ZM22.1384 21.9805C22.6611 21.9805 23.0765 21.7477 23.3845 21.2822C23.6996 20.8096 23.8571 20.1829 23.8571 19.4023V18.3926L22.9762 18.4355C22.3246 18.4714 21.8447 18.6576 21.5368 18.9941C21.236 19.3307 21.0856 19.832 21.0856 20.498C21.0856 21.4863 21.4365 21.9805 22.1384 21.9805ZM34.7866 11.8076C35.1376 11.8076 35.4813 11.8613 35.8179 11.9688L35.4849 14.7402C35.2844 14.6686 35.023 14.6328 34.7007 14.6328C34.006 14.6328 33.4725 14.9085 33.1001 15.46C32.7277 16.0042 32.5415 16.7992 32.5415 17.8447V24H29.6841V12.0332H32.0366L32.3589 13.9023H32.4556C32.7707 13.1504 33.1144 12.6133 33.4868 12.291C33.8592 11.9688 34.2925 11.8076 34.7866 11.8076ZM41.9134 21.7979C42.3145 21.7979 42.7477 21.6976 43.2132 21.4971V23.7314C42.7477 24.0537 42.0495 24.2148 41.1185 24.2148C40.0801 24.2148 39.3102 23.9069 38.8089 23.291C38.3076 22.668 38.057 21.737 38.057 20.498V14.2998H36.8968V13.0215L38.39 11.9902L39.1205 9.45508H40.9466V12.0332H43.1166V14.2998H40.9466V20.5947C40.9466 21.3968 41.2689 21.7979 41.9134 21.7979ZM52.0158 24L51.6613 22.4639H51.5109C51.246 23.0081 50.8664 23.4378 50.3723 23.7529C49.8853 24.0609 49.3267 24.2148 48.6965 24.2148C47.6223 24.2148 46.8094 23.8496 46.258 23.1191C45.7066 22.3887 45.4309 21.2965 45.4309 19.8428V12.0332H48.3205V19.1553C48.3205 20.029 48.4243 20.6878 48.632 21.1318C48.8397 21.5758 49.1763 21.7979 49.6418 21.7979C50.2577 21.7979 50.7053 21.4899 50.9846 20.874C51.271 20.2581 51.4143 19.2233 51.4143 17.7695V12.0332H54.3039V24H52.0158ZM62.6983 24.2148C62.1827 24.2148 61.7243 24.1003 61.3233 23.8711C60.9294 23.6348 60.5606 23.223 60.2168 22.6357H60.0664C60.181 23.6097 60.2383 24.1969 60.2383 24.3975V29.2852H57.3594V12.0332H59.5723L60.0664 13.5908H60.1954C60.7898 12.402 61.6527 11.8076 62.7842 11.8076C63.8728 11.8076 64.725 12.3483 65.3409 13.4297C65.9567 14.5039 66.2647 16.0257 66.2647 17.9951C66.2647 19.9359 65.946 21.4577 65.3086 22.5605C64.6713 23.6634 63.8011 24.2148 62.6983 24.2148ZM61.8174 14.2354C61.2588 14.2354 60.8542 14.4967 60.6036 15.0195C60.3601 15.5352 60.2312 16.3945 60.2168 17.5977V17.9736C60.2168 19.2913 60.3422 20.251 60.5928 20.8525C60.8435 21.4541 61.2588 21.7549 61.8389 21.7549C62.8415 21.7549 63.3428 20.4873 63.3428 17.9521C63.3428 16.7061 63.2175 15.7751 62.9668 15.1592C62.7233 14.5433 62.3402 14.2354 61.8174 14.2354ZM78.1013 24H75.2009V8.29492H82.237V10.8193H78.1013V15.1807H81.9577V17.7051H78.1013V24ZM90.5562 24L89.9869 22.3672H89.9224C89.4999 23.069 89.063 23.5524 88.6119 23.8174C88.1607 24.0824 87.5914 24.2148 86.9039 24.2148C86.023 24.2148 85.3283 23.8854 84.8199 23.2266C84.3186 22.5677 84.0679 21.651 84.0679 20.4766C84.0679 19.2161 84.4117 18.2816 85.0992 17.6729C85.7938 17.057 86.8287 16.7168 88.2037 16.6523L89.7935 16.5879V15.7285C89.7935 14.6113 89.3101 14.0527 88.3433 14.0527C87.6272 14.0527 86.8036 14.332 85.8726 14.8906L84.8843 12.9141C86.0731 12.1621 87.3658 11.7861 88.7623 11.7861C90.0298 11.7861 90.9931 12.1514 91.6519 12.8818C92.3179 13.6051 92.6509 14.6328 92.6509 15.9648V24H90.5562ZM88.0748 21.9805C88.5976 21.9805 89.0129 21.7477 89.3209 21.2822C89.636 20.8096 89.7935 20.1829 89.7935 19.4023V18.3926L88.9127 18.4355C88.261 18.4714 87.7811 18.6576 87.4732 18.9941C87.1724 19.3307 87.022 19.832 87.022 20.498C87.022 21.4863 87.3729 21.9805 88.0748 21.9805ZM98.4994 24H95.642V12.0332H98.4994V24ZM95.5238 8.90723C95.5238 8.43457 95.6599 8.06217 95.932 7.79004C96.2113 7.51074 96.598 7.37109 97.0922 7.37109C97.5577 7.37109 97.9301 7.51074 98.2094 7.79004C98.4887 8.06217 98.6283 8.43457 98.6283 8.90723C98.6283 9.39421 98.4851 9.77376 98.1986 10.0459C97.9122 10.3109 97.5434 10.4434 97.0922 10.4434C96.6195 10.4434 96.24 10.3109 95.9535 10.0459C95.6671 9.77376 95.5238 9.39421 95.5238 8.90723ZM106.711 11.8076C107.062 11.8076 107.406 11.8613 107.742 11.9688L107.409 14.7402C107.209 14.6686 106.947 14.6328 106.625 14.6328C105.931 14.6328 105.397 14.9085 105.025 15.46C104.652 16.0042 104.466 16.7992 104.466 17.8447V24H101.609V12.0332H103.961L104.283 13.9023H104.38C104.695 13.1504 105.039 12.6133 105.411 12.291C105.784 11.9688 106.217 11.8076 106.711 11.8076ZM115.948 24V8.29492H118.87V21.4434H122.92V24H115.948ZM132.893 24L131.991 20.0361H127.898L126.996 24H124.074L127.963 8.23047H131.927L135.826 24H132.893ZM131.443 17.4473L130.605 13.7949C130.555 13.5729 130.441 13.0179 130.261 12.1299C130.09 11.2347 129.986 10.6367 129.95 10.3359C129.857 10.9518 129.739 11.6322 129.595 12.377C129.452 13.1146 129.08 14.8047 128.478 17.4473H131.443Z" transform="translate(159 63)" fill="black"/>
<path d="M8.81934 24L7.91699 20.0361H3.82422L2.92188 24H0L3.88867 8.23047H7.85254L11.752 24H8.81934ZM7.36914 17.4473L6.53125 13.7949C6.48112 13.5729 6.36654 13.0179 6.1875 12.1299C6.01562 11.2347 5.91178 10.6367 5.87598 10.3359C5.78288 10.9518 5.66471 11.6322 5.52148 12.377C5.37826 13.1146 5.00586 14.8047 4.4043 17.4473H7.36914ZM19.0291 11.8076C20.1177 11.8076 20.9735 12.3483 21.5965 13.4297C22.2196 14.5111 22.5311 16.0329 22.5311 17.9951C22.5311 19.9788 22.216 21.5114 21.5858 22.5928C20.9627 23.6742 20.0962 24.2148 18.9862 24.2148C18.4491 24.2148 17.9728 24.1003 17.5575 23.8711C17.1493 23.6348 16.7625 23.223 16.3973 22.6357H16.2147L15.7313 24H13.6258V7.28516H16.4832V11.1953C16.4832 11.36 16.4797 11.5319 16.4725 11.7109C16.4653 11.89 16.4188 12.5166 16.3329 13.5908H16.4832C16.8342 12.932 17.2137 12.4701 17.6219 12.2051C18.0301 11.9401 18.4992 11.8076 19.0291 11.8076ZM18.0409 14.2354C17.4966 14.2354 17.1027 14.4896 16.8592 14.998C16.6229 15.5065 16.4976 16.4017 16.4832 17.6836V17.9736C16.4832 19.363 16.605 20.3405 16.8485 20.9062C17.0991 21.472 17.5037 21.7549 18.0623 21.7549C19.0936 21.7549 19.6092 20.4873 19.6092 17.9521C19.6092 15.4743 19.0864 14.2354 18.0409 14.2354ZM34.0622 17.9951C34.0622 19.9574 33.6468 21.4863 32.8161 22.582C31.9854 23.6706 30.8467 24.2148 29.4001 24.2148C28.4834 24.2148 27.6742 23.9642 26.9723 23.4629C26.2705 22.9616 25.7298 22.2419 25.3503 21.3037C24.9707 20.3584 24.7809 19.2555 24.7809 17.9951C24.7809 16.0544 25.1927 14.5397 26.0163 13.4512C26.8399 12.3555 27.9821 11.8076 29.443 11.8076C30.8539 11.8076 31.9746 12.3662 32.8054 13.4834C33.6432 14.5934 34.0622 16.0973 34.0622 17.9951ZM27.7028 17.9951C27.7028 19.2412 27.8389 20.1829 28.111 20.8203C28.3832 21.4577 28.82 21.7764 29.4216 21.7764C30.5674 21.7764 31.1403 20.516 31.1403 17.9951C31.1403 16.7419 31.0007 15.8073 30.7214 15.1914C30.4492 14.5684 30.016 14.2568 29.4216 14.2568C28.82 14.2568 28.3832 14.5684 28.111 15.1914C27.8389 15.8073 27.7028 16.7419 27.7028 17.9951ZM43.1978 24L42.8433 22.4639H42.6929C42.4279 23.0081 42.0484 23.4378 41.5542 23.7529C41.0672 24.0609 40.5086 24.2148 39.8784 24.2148C38.8042 24.2148 37.9914 23.8496 37.44 23.1191C36.8885 22.3887 36.6128 21.2965 36.6128 19.8428V12.0332H39.5025V19.1553C39.5025 20.029 39.6063 20.6878 39.814 21.1318C40.0217 21.5758 40.3583 21.7979 40.8237 21.7979C41.4396 21.7979 41.8872 21.4899 42.1665 20.874C42.453 20.2581 42.5962 19.2233 42.5962 17.7695V12.0332H45.4859V24H43.1978ZM52.6986 21.7979C53.0996 21.7979 53.5329 21.6976 53.9984 21.4971V23.7314C53.5329 24.0537 52.8347 24.2148 51.9037 24.2148C50.8653 24.2148 50.0954 23.9069 49.5941 23.291C49.0928 22.668 48.8421 21.737 48.8421 20.498V14.2998H47.682V13.0215L49.1752 11.9902L49.9056 9.45508H51.7318V12.0332H53.9017V14.2998H51.7318V20.5947C51.7318 21.3968 52.0541 21.7979 52.6986 21.7979Z" transform="translate(706 64)" fill="black"/>
<path d="M8.54004 19.6709C8.54004 21.139 8.16764 22.2633 7.42285 23.0439C6.68522 23.8245 5.61816 24.2148 4.22168 24.2148C2.85384 24.2148 1.6901 23.9463 0.730469 23.4092V20.5195C1.90495 21.2858 2.98275 21.6689 3.96387 21.6689C4.52246 21.6689 4.94141 21.515 5.2207 21.207C5.50716 20.8991 5.65039 20.4801 5.65039 19.9502C5.65039 19.4274 5.4821 18.9512 5.14551 18.5215C4.80892 18.0846 4.25391 17.6012 3.48047 17.0713C2.80729 16.6058 2.29525 16.1618 1.94434 15.7393C1.60059 15.3096 1.33203 14.8298 1.13867 14.2998C0.952474 13.7699 0.859375 13.154 0.859375 12.4521C0.859375 11.1058 1.23177 10.0387 1.97656 9.25098C2.72852 8.46322 3.7347 8.06934 4.99512 8.06934C6.19824 8.06934 7.35482 8.40592 8.46484 9.0791L7.49805 11.4209C7.1543 11.2204 6.79264 11.0413 6.41309 10.8838C6.04069 10.7262 5.63965 10.6475 5.20996 10.6475C4.7373 10.6475 4.37207 10.805 4.11426 11.1201C3.86361 11.4281 3.73828 11.8506 3.73828 12.3877C3.73828 12.9176 3.88867 13.3796 4.18945 13.7734C4.4974 14.1673 5.03092 14.6149 5.79004 15.1162C6.81413 15.8037 7.52669 16.5055 7.92773 17.2217C8.33594 17.9378 8.54004 18.7542 8.54004 19.6709ZM16.3006 24.2148C15.785 24.2148 15.3267 24.1003 14.9256 23.8711C14.5317 23.6348 14.1629 23.223 13.8192 22.6357H13.6688C13.7834 23.6097 13.8407 24.1969 13.8407 24.3975V29.2852H10.9618V12.0332H13.1746L13.6688 13.5908H13.7977C14.3921 12.402 15.2551 11.8076 16.3866 11.8076C17.4751 11.8076 18.3273 12.3483 18.9432 13.4297C19.5591 14.5039 19.867 16.0257 19.867 17.9951C19.867 19.9359 19.5483 21.4577 18.911 22.5605C18.2736 23.6634 17.4035 24.2148 16.3006 24.2148ZM15.4198 14.2354C14.8612 14.2354 14.4565 14.4967 14.2059 15.0195C13.9624 15.5352 13.8335 16.3945 13.8192 17.5977V17.9736C13.8192 19.2913 13.9445 20.251 14.1952 20.8525C14.4458 21.4541 14.8612 21.7549 15.4412 21.7549C16.4439 21.7549 16.9452 20.4873 16.9452 17.9521C16.9452 16.7061 16.8198 15.7751 16.5692 15.1592C16.3257 14.5433 15.9426 14.2354 15.4198 14.2354ZM31.3981 17.9951C31.3981 19.9574 30.9828 21.4863 30.152 22.582C29.3213 23.6706 28.1826 24.2148 26.736 24.2148C25.8193 24.2148 25.0101 23.9642 24.3083 23.4629C23.6065 22.9616 23.0658 22.2419 22.6862 21.3037C22.3067 20.3584 22.1169 19.2555 22.1169 17.9951C22.1169 16.0544 22.5287 14.5397 23.3522 13.4512C24.1758 12.3555 25.318 11.8076 26.779 11.8076C28.1898 11.8076 29.3106 12.3662 30.1413 13.4834C30.9792 14.5934 31.3981 16.0973 31.3981 17.9951ZM25.0387 17.9951C25.0387 19.2412 25.1748 20.1829 25.447 20.8203C25.7191 21.4577 26.1559 21.7764 26.7575 21.7764C27.9033 21.7764 28.4762 20.516 28.4762 17.9951C28.4762 16.7419 28.3366 15.8073 28.0573 15.1914C27.7852 14.5684 27.3519 14.2568 26.7575 14.2568C26.1559 14.2568 25.7191 14.5684 25.447 15.1914C25.1748 15.8073 25.0387 16.7419 25.0387 17.9951ZM40.0288 24V16.8672C40.0288 16.0007 39.925 15.3454 39.7173 14.9014C39.5096 14.4574 39.173 14.2354 38.7075 14.2354C38.0917 14.2354 37.6405 14.5433 37.354 15.1592C37.0676 15.7679 36.9243 16.7992 36.9243 18.2529V24H34.0669V12.0332H36.3335L36.6773 13.5693H36.8599C37.1177 13.0179 37.4865 12.5882 37.9663 12.2803C38.4461 11.9652 39.0083 11.8076 39.6529 11.8076C40.7414 11.8076 41.5542 12.18 42.0913 12.9248C42.6356 13.6696 42.9077 14.7581 42.9077 16.1904V24H40.0288ZM52.3011 20.498C52.3011 21.6654 51.9574 22.5785 51.2699 23.2373C50.5895 23.889 49.5834 24.2148 48.2513 24.2148C47.0697 24.2148 46.0921 23.9821 45.3187 23.5166V21.0352C45.7126 21.3073 46.1709 21.5329 46.6937 21.7119C47.2237 21.891 47.6892 21.9805 48.0902 21.9805C48.5342 21.9805 48.8708 21.873 49.1 21.6582C49.3363 21.4362 49.4545 21.1462 49.4545 20.7881C49.4545 20.4229 49.3327 20.1042 49.0892 19.832C48.8457 19.5599 48.3981 19.2269 47.7464 18.833C46.8799 18.3174 46.2569 17.7695 45.8773 17.1895C45.5049 16.6022 45.3187 15.9111 45.3187 15.1162C45.3187 14.0993 45.666 13.2936 46.3607 12.6992C47.0625 12.1048 48.0222 11.8076 49.2396 11.8076C50.2995 11.8076 51.2985 12.0869 52.2367 12.6455L51.3021 14.6973C50.5358 14.2819 49.8627 14.0742 49.2826 14.0742C48.9173 14.0742 48.6416 14.1709 48.4554 14.3643C48.2764 14.5576 48.1869 14.7939 48.1869 15.0732C48.1869 15.3955 48.2979 15.682 48.5199 15.9326C48.749 16.1833 49.1716 16.4948 49.7875 16.8672C50.5323 17.3184 51.055 17.7015 51.3558 18.0166C51.6566 18.3317 51.8893 18.6898 52.0541 19.0908C52.2188 19.4919 52.3011 19.9609 52.3011 20.498ZM63.6281 17.9951C63.6281 19.9574 63.2128 21.4863 62.382 22.582C61.5513 23.6706 60.4126 24.2148 58.966 24.2148C58.0493 24.2148 57.2401 23.9642 56.5383 23.4629C55.8365 22.9616 55.2958 22.2419 54.9162 21.3037C54.5367 20.3584 54.3469 19.2555 54.3469 17.9951C54.3469 16.0544 54.7587 14.5397 55.5822 13.4512C56.4058 12.3555 57.548 11.8076 59.009 11.8076C60.4198 11.8076 61.5406 12.3662 62.3713 13.4834C63.2092 14.5934 63.6281 16.0973 63.6281 17.9951ZM57.2687 17.9951C57.2687 19.2412 57.4048 20.1829 57.677 20.8203C57.9491 21.4577 58.3859 21.7764 58.9875 21.7764C60.1333 21.7764 60.7062 20.516 60.7062 17.9951C60.7062 16.7419 60.5666 15.8073 60.2873 15.1914C60.0152 14.5684 59.5819 14.2568 58.9875 14.2568C58.3859 14.2568 57.9491 14.5684 57.677 15.1914C57.4048 15.8073 57.2687 16.7419 57.2687 17.9951ZM71.3995 11.8076C71.7504 11.8076 72.0941 11.8613 72.4307 11.9688L72.0977 14.7402C71.8972 14.6686 71.6358 14.6328 71.3135 14.6328C70.6189 14.6328 70.0853 14.9085 69.7129 15.46C69.3405 16.0042 69.1543 16.7992 69.1543 17.8447V24H66.2969V12.0332H68.6495L68.9717 13.9023H69.0684C69.3835 13.1504 69.7273 12.6133 70.0996 12.291C70.472 11.9688 70.9053 11.8076 71.3995 11.8076ZM80.7928 20.498C80.7928 21.6654 80.4491 22.5785 79.7616 23.2373C79.0813 23.889 78.0751 24.2148 76.743 24.2148C75.5614 24.2148 74.5839 23.9821 73.8104 23.5166V21.0352C74.2043 21.3073 74.6626 21.5329 75.1854 21.7119C75.7154 21.891 76.1809 21.9805 76.5819 21.9805C77.0259 21.9805 77.3625 21.873 77.5917 21.6582C77.828 21.4362 77.9462 21.1462 77.9462 20.7881C77.9462 20.4229 77.8244 20.1042 77.5809 19.832C77.3374 19.5599 76.8899 19.2269 76.2382 18.833C75.3716 18.3174 74.7486 17.7695 74.369 17.1895C73.9966 16.6022 73.8104 15.9111 73.8104 15.1162C73.8104 14.0993 74.1578 13.2936 74.8524 12.6992C75.5542 12.1048 76.5139 11.8076 77.7313 11.8076C78.7912 11.8076 79.7902 12.0869 80.7284 12.6455L79.7938 14.6973C79.0275 14.2819 78.3544 14.0742 77.7743 14.0742C77.4091 14.0742 77.1333 14.1709 76.9471 14.3643C76.7681 14.5576 76.6786 14.7939 76.6786 15.0732C76.6786 15.3955 76.7896 15.682 77.0116 15.9326C77.2408 16.1833 77.6633 16.4948 78.2792 16.8672C79.024 17.3184 79.5468 17.7015 79.8475 18.0166C80.1483 18.3317 80.3811 18.6898 80.5458 19.0908C80.7105 19.4919 80.7928 19.9609 80.7928 20.498Z" transform="translate(810 64)" fill="black"/>
<path d="M8.81934 24L7.91699 20.0361H3.82422L2.92188 24H0L3.88867 8.23047H7.85254L11.752 24H8.81934ZM7.36914 17.4473L6.53125 13.7949C6.48112 13.5729 6.36654 13.0179 6.1875 12.1299C6.01562 11.2347 5.91178 10.6367 5.87598 10.3359C5.78288 10.9518 5.66471 11.6322 5.52148 12.377C5.37826 13.1146 5.00586 14.8047 4.4043 17.4473H7.36914ZM22.2411 12.0547V13.7305L20.8123 14.0527C21.0916 14.554 21.2313 15.1842 21.2313 15.9434C21.2313 17.2109 20.8875 18.2028 20.2 18.9189C19.5125 19.6351 18.5529 19.9932 17.3211 19.9932C16.9631 19.9932 16.6981 19.9645 16.5262 19.9072C16.3901 20.029 16.2612 20.165 16.1395 20.3154C16.0177 20.4658 15.9569 20.652 15.9569 20.874C15.9569 21.3753 16.3901 21.626 17.2567 21.626H18.9862C20.0031 21.626 20.7837 21.9017 21.328 22.4531C21.8794 22.9974 22.1551 23.821 22.1551 24.9238C22.1551 26.3132 21.6896 27.3874 20.7586 28.1465C19.8276 28.9056 18.4885 29.2852 16.7411 29.2852C15.4162 29.2852 14.3957 28.9951 13.6795 28.415C12.9634 27.8421 12.6053 27.0221 12.6053 25.9551C12.6053 25.2891 12.8094 24.7018 13.2176 24.1934C13.6258 23.6921 14.1916 23.3268 14.9149 23.0977C14.5496 22.9544 14.2489 22.7324 14.0125 22.4316C13.7834 22.1309 13.6688 21.7799 13.6688 21.3789C13.6688 21.1354 13.7046 20.917 13.7762 20.7236C13.8478 20.5231 13.9481 20.3369 14.077 20.165C14.2131 19.986 14.4852 19.7246 14.8934 19.3809C14.3993 19.0801 14.009 18.6182 13.7225 17.9951C13.436 17.3721 13.2928 16.681 13.2928 15.9219C13.2928 14.6113 13.6366 13.598 14.3241 12.8818C15.0116 12.1657 15.9963 11.8076 17.2782 11.8076C17.5217 11.8076 17.801 11.8363 18.1161 11.8936C18.4312 11.9437 18.6711 11.9974 18.8358 12.0547H22.2411ZM15.2049 25.7402C15.2049 26.2129 15.3517 26.5745 15.6454 26.8252C15.9461 27.083 16.3722 27.2119 16.9237 27.2119C17.7902 27.2119 18.4383 27.0472 18.868 26.7178C19.3049 26.3883 19.5233 25.9372 19.5233 25.3643C19.5233 24.9131 19.4051 24.5944 19.1688 24.4082C18.9396 24.222 18.5064 24.1289 17.869 24.1289H16.4832C16.0965 24.1289 15.785 24.2721 15.5487 24.5586C15.3195 24.8522 15.2049 25.2461 15.2049 25.7402ZM16.0858 15.9434C16.0858 17.3542 16.4832 18.0596 17.2782 18.0596C18.0516 18.0596 18.4383 17.347 18.4383 15.9219C18.4383 14.4609 18.0516 13.7305 17.2782 13.7305C16.4832 13.7305 16.0858 14.4681 16.0858 15.9434ZM28.7555 24.2148C27.2588 24.2148 26.0772 23.6849 25.2106 22.625C24.3512 21.5579 23.9216 20.0505 23.9216 18.1025C23.9216 16.126 24.3119 14.5827 25.0925 13.4727C25.8731 12.3626 26.9616 11.8076 28.3581 11.8076C29.6615 11.8076 30.6891 12.2839 31.4411 13.2363C32.193 14.1816 32.569 15.5101 32.569 17.2217V18.7471H26.822C26.8434 19.8141 27.0619 20.609 27.4772 21.1318C27.8926 21.6475 28.4655 21.9053 29.196 21.9053C30.127 21.9053 31.0794 21.6152 32.0534 21.0352V23.3877C31.1367 23.9391 30.0374 24.2148 28.7555 24.2148ZM28.3366 14.0098C27.9284 14.0098 27.5918 14.2282 27.3268 14.665C27.0619 15.0947 26.9079 15.7643 26.8649 16.6738H29.7653C29.751 15.8001 29.6185 15.1377 29.3679 14.6865C29.1172 14.2354 28.7735 14.0098 28.3366 14.0098ZM41.0816 24V16.8672C41.0816 16.0007 40.9777 15.3454 40.77 14.9014C40.5624 14.4574 40.2258 14.2354 39.7603 14.2354C39.1444 14.2354 38.6932 14.5433 38.4068 15.1592C38.1203 15.7679 37.9771 16.7992 37.9771 18.2529V24H35.1196V12.0332H37.3862L37.73 13.5693H37.9126C38.1704 13.0179 38.5392 12.5882 39.0191 12.2803C39.4989 11.9652 40.0611 11.8076 40.7056 11.8076C41.7941 11.8076 42.607 12.18 43.1441 12.9248C43.6883 13.6696 43.9605 14.7581 43.9605 16.1904V24H41.0816ZM50.0775 24.2148C48.9746 24.2148 48.1045 23.6706 47.4671 22.582C46.8298 21.4935 46.5111 19.9788 46.5111 18.0381C46.5111 16.0902 46.8226 14.5648 47.4457 13.4619C48.0687 12.359 48.9281 11.8076 50.0238 11.8076C50.5681 11.8076 51.0371 11.9437 51.431 12.2158C51.8321 12.4808 52.2009 12.932 52.5375 13.5693H52.7093C52.6234 12.4808 52.5804 11.7181 52.5804 11.2812V7.28516H55.4379V24H53.3109L52.8275 22.4424H52.7308C52.1221 23.624 51.2377 24.2148 50.0775 24.2148ZM51.0013 21.7979C51.5313 21.7979 51.918 21.5579 52.1615 21.0781C52.405 20.5911 52.5375 19.7103 52.5589 18.4355V18.0596C52.5589 16.6702 52.4336 15.6927 52.183 15.127C51.9395 14.5612 51.5349 14.2783 50.9691 14.2783C50.4392 14.2783 50.0524 14.6042 49.8089 15.2559C49.5726 15.9004 49.4545 16.8421 49.4545 18.0811C49.4545 19.32 49.5762 20.251 49.8197 20.874C50.0632 21.4899 50.4571 21.7979 51.0013 21.7979ZM64.3693 24L63.8 22.3672H63.7355C63.313 23.069 62.8762 23.5524 62.425 23.8174C61.9738 24.0824 61.4045 24.2148 60.717 24.2148C59.8361 24.2148 59.1415 23.8854 58.633 23.2266C58.1317 22.5677 57.8811 21.651 57.8811 20.4766C57.8811 19.2161 58.2248 18.2816 58.9123 17.6729C59.607 17.057 60.6418 16.7168 62.0168 16.6523L63.6066 16.5879V15.7285C63.6066 14.6113 63.1232 14.0527 62.1564 14.0527C61.4403 14.0527 60.6167 14.332 59.6857 14.8906L58.6975 12.9141C59.8863 12.1621 61.1789 11.7861 62.5754 11.7861C63.843 11.7861 64.8062 12.1514 65.465 12.8818C66.1311 13.6051 66.4641 14.6328 66.4641 15.9648V24H64.3693ZM61.8879 21.9805C62.4107 21.9805 62.826 21.7477 63.134 21.2822C63.4491 20.8096 63.6066 20.1829 63.6066 19.4023V18.3926L62.7258 18.4355C62.0741 18.4714 61.5943 18.6576 61.2863 18.9941C60.9855 19.3307 60.8352 19.832 60.8352 20.498C60.8352 21.4863 61.1861 21.9805 61.8879 21.9805Z" transform="translate(938 64)" fill="black"/>
<path d="M3.54 9.96L1.08 9.57V7.71H17.64L17.94 13.14H15.54L14.43 9.84L7.95 9.51V18L12.42 17.91L12.99 15.27H14.91V22.89H13.02L12.42 20.19L7.95 20.07V27.9L12.54 28.2V30H1.23V28.2L3.54 27.9V9.96ZM19.6821 25.32C19.6821 23.5 20.5921 22.13 22.4121 21.21C24.2521 20.29 26.6221 19.82 29.5221 19.8V19.11C29.5221 18.29 29.4321 17.65 29.2521 17.19C29.0921 16.73 28.7821 16.39 28.3221 16.17C27.8821 15.93 27.2321 15.81 26.3721 15.81C25.3921 15.81 24.5121 15.94 23.7321 16.2C22.9521 16.44 22.1421 16.76 21.3021 17.16L20.3721 15.24C20.6721 14.98 21.1721 14.67 21.8721 14.31C22.5921 13.95 23.4421 13.64 24.4221 13.38C25.4021 13.1 26.4121 12.96 27.4521 12.96C28.9921 12.96 30.1921 13.16 31.0521 13.56C31.9321 13.96 32.5621 14.6 32.9421 15.48C33.3221 16.36 33.5121 17.54 33.5121 19.02V28.2H35.1321V29.88C34.7321 29.98 34.1621 30.08 33.4221 30.18C32.6821 30.28 32.0321 30.33 31.4721 30.33C30.7921 30.33 30.3321 30.23 30.0921 30.03C29.8721 29.83 29.7621 29.42 29.7621 28.8V27.99C29.2221 28.59 28.5221 29.13 27.6621 29.61C26.8021 30.09 25.8321 30.33 24.7521 30.33C23.8321 30.33 22.9821 30.14 22.2021 29.76C21.4421 29.36 20.8321 28.79 20.3721 28.05C19.9121 27.29 19.6821 26.38 19.6821 25.32ZM26.6721 27.84C27.0921 27.84 27.5721 27.72 28.1121 27.48C28.6521 27.22 29.1221 26.91 29.5221 26.55V21.63C27.7221 21.63 26.3721 21.94 25.4721 22.56C24.5921 23.16 24.1521 23.94 24.1521 24.9C24.1521 25.86 24.3721 26.59 24.8121 27.09C25.2721 27.59 25.8921 27.84 26.6721 27.84ZM38.7443 8.07L36.5243 7.68V6.06L42.0743 5.4H42.1343L42.9443 5.97V27.96L45.1343 28.2V30H36.6443V28.2L38.7443 27.93V8.07ZM48.9396 8.07L46.7196 7.68V6.06L52.2696 5.4H52.3296L53.1396 5.97V27.96L55.3296 28.2V30H46.8396V28.2L48.9396 27.93V8.07ZM64.3041 28.38C67.0841 26.74 69.3641 24.93 71.1441 22.95C72.9241 20.97 73.8141 19.06 73.8141 17.22C73.8141 16.24 73.5041 15.46 72.8841 14.88C72.2841 14.28 71.4341 13.98 70.3341 13.98C69.2941 13.98 68.4141 14.18 67.6941 14.58C66.9941 14.96 66.3041 15.46 65.6241 16.08L64.4841 14.43C64.8841 13.93 65.4541 13.42 66.1941 12.9C66.9541 12.38 67.8341 11.95 68.8341 11.61C69.8341 11.25 70.8441 11.07 71.8641 11.07C73.3241 11.07 74.5441 11.32 75.5241 11.82C76.5241 12.32 77.2641 12.98 77.7441 13.8C78.2241 14.62 78.4641 15.53 78.4641 16.53C78.4641 18.45 77.5441 20.38 75.7041 22.32C73.8641 24.26 71.5241 26.04 68.6841 27.66L77.3841 26.85L78.5241 24.33L80.4141 24.72L79.5441 30H64.9341L64.3041 28.38ZM90.8981 30.3C88.3381 30.3 86.3781 29.45 85.0181 27.75C83.6781 26.03 83.0081 23.7 83.0081 20.76C83.0081 18.68 83.3981 16.92 84.1781 15.48C84.9581 14.02 85.9881 12.93 87.2681 12.21C88.5681 11.47 90.0081 11.1 91.5881 11.1C94.1681 11.1 96.1081 11.92 97.4081 13.56C98.7081 15.18 99.3581 17.48 99.3581 20.46C99.3581 22.52 98.9781 24.3 98.2181 25.8C97.4781 27.28 96.4681 28.4 95.1881 29.16C93.9081 29.92 92.4781 30.3 90.8981 30.3ZM91.1981 28.5C92.4581 28.5 93.3781 27.86 93.9581 26.58C94.5581 25.28 94.8581 23.35 94.8581 20.79C94.8581 18.07 94.5781 16.08 94.0181 14.82C93.4781 13.54 92.5481 12.9 91.2281 12.9C88.7481 12.9 87.5081 15.41 87.5081 20.43C87.5081 23.11 87.7981 25.13 88.3781 26.49C88.9781 27.83 89.9181 28.5 91.1981 28.5ZM106.385 15.3C106.045 15.42 105.435 15.58 104.555 15.78C103.675 15.96 102.985 16.08 102.485 16.14L102.155 14.04C103.235 13.82 104.355 13.43 105.515 12.87C106.695 12.29 107.655 11.69 108.395 11.07H108.425L110.795 11.4V27.9L114.215 28.23V30H102.785V28.23L106.385 27.93V15.3ZM116.405 24.54C116.405 23.38 116.785 22.32 117.545 21.36C118.305 20.38 119.425 19.57 120.905 18.93C119.785 18.21 118.915 17.41 118.295 16.53C117.675 15.63 117.365 14.52 117.365 13.2C117.365 12 117.685 10.97 118.325 10.11C118.985 9.23 119.865 8.56 120.965 8.1C122.065 7.64 123.275 7.41 124.595 7.41C125.995 7.41 127.205 7.62 128.225 8.04C129.245 8.46 130.025 9.05 130.565 9.81C131.105 10.57 131.375 11.44 131.375 12.42C131.375 13.52 131.035 14.53 130.355 15.45C129.675 16.35 128.695 17.12 127.415 17.76C128.995 18.66 130.235 19.6 131.135 20.58C132.035 21.56 132.485 22.77 132.485 24.21C132.485 25.45 132.125 26.53 131.405 27.45C130.705 28.37 129.725 29.08 128.465 29.58C127.225 30.08 125.825 30.33 124.265 30.33C122.065 30.33 120.205 29.86 118.685 28.92C117.165 27.96 116.405 26.5 116.405 24.54ZM121.115 12.27C121.115 12.93 121.315 13.53 121.715 14.07C122.135 14.59 122.645 15.05 123.245 15.45C123.865 15.83 124.715 16.31 125.795 16.89C126.535 16.43 127.105 15.87 127.505 15.21C127.925 14.55 128.135 13.84 128.135 13.08C128.135 11.82 127.815 10.85 127.175 10.17C126.555 9.49 125.685 9.15 124.565 9.15C123.605 9.15 122.785 9.43 122.105 9.99C121.445 10.53 121.115 11.29 121.115 12.27ZM128.225 24.99C128.225 24.31 128.025 23.72 127.625 23.22C127.225 22.7 126.725 22.25 126.125 21.87C125.545 21.49 124.725 21.02 123.665 20.46C123.105 20.18 122.685 19.96 122.405 19.8C121.665 20.28 121.065 20.87 120.605 21.57C120.165 22.27 119.945 23.04 119.945 23.88C119.945 25.26 120.335 26.37 121.115 27.21C121.915 28.05 123.005 28.47 124.385 28.47C125.045 28.47 125.665 28.33 126.245 28.05C126.845 27.75 127.325 27.34 127.685 26.82C128.045 26.3 128.225 25.69 128.225 24.99Z" transform="translate(159 453)" fill="#7A7C7C"/>
<path d="M10.47 73.33C8.43 73.33 6.7 72.86 5.28 71.92C3.88 70.98 2.82 69.66 2.1 67.96C1.38 66.24 1.02 64.25 1.02 61.99C1.02 59.69 1.45 57.67 2.31 55.93C3.19 54.19 4.39 52.85 5.91 51.91C7.43 50.95 9.14 50.47 11.04 50.47C14.16 50.47 16.54 51.46 18.18 53.44C19.84 55.4 20.67 58.12 20.67 61.6C20.67 63.94 20.22 66 19.32 67.78C18.44 69.54 17.22 70.91 15.66 71.89C14.12 72.85 12.39 73.33 10.47 73.33ZM10.86 52.03C8.92 52.03 7.39 52.88 6.27 54.58C5.15 56.26 4.59 58.73 4.59 61.99C4.59 64.99 5.13 67.37 6.21 69.13C7.31 70.87 8.84 71.74 10.8 71.74C12.72 71.74 14.24 70.87 15.36 69.13C16.5 67.39 17.07 64.89 17.07 61.63C17.07 58.61 16.53 56.26 15.45 54.58C14.37 52.88 12.84 52.03 10.86 52.03ZM22.6404 64.78C22.6404 63.12 22.9604 61.62 23.6004 60.28C24.2604 58.94 25.2204 57.88 26.4804 57.1C27.7604 56.3 29.2904 55.9 31.0704 55.9C31.9304 55.9 32.6704 55.98 33.2904 56.14C33.9104 56.3 34.6504 56.52 35.5104 56.8L35.3904 61.42H33.4404L32.7804 58.36C32.6604 57.8 31.9004 57.52 30.5004 57.52C29.1004 57.52 27.9904 58.09 27.1704 59.23C26.3704 60.35 25.9704 61.95 25.9704 64.03C25.9704 66.39 26.4204 68.19 27.3204 69.43C28.2404 70.65 29.4304 71.26 30.8904 71.26C31.7304 71.26 32.5204 71.13 33.2604 70.87C34.0204 70.61 34.6704 70.3 35.2104 69.94L35.7804 71.14C35.2404 71.7 34.4404 72.21 33.3804 72.67C32.3404 73.11 31.2804 73.33 30.2004 73.33C28.5604 73.33 27.1704 72.96 26.0304 72.22C24.9104 71.48 24.0604 70.47 23.4804 69.19C22.9204 67.89 22.6404 66.42 22.6404 64.78ZM43.5113 73.3C42.3712 73.3 41.5212 73.04 40.9612 72.52C40.4012 72 40.1213 71.11 40.1213 69.85V58.33H37.9612V56.98C38.0612 56.96 38.3412 56.89 38.8013 56.77C39.2613 56.65 39.5713 56.54 39.7313 56.44C40.0513 56.26 40.3012 55.9 40.4813 55.36C40.6413 54.98 40.8313 54.37 41.0513 53.53C41.2712 52.69 41.4012 52.19 41.4412 52.03H43.2113L43.2713 56.35H48.2812V58.33H43.2713V67.54C43.2713 68.68 43.3013 69.48 43.3612 69.94C43.4413 70.4 43.5913 70.7 43.8112 70.84C44.0513 70.98 44.4513 71.05 45.0113 71.05C45.5513 71.05 46.1413 70.98 46.7812 70.84C47.4413 70.7 47.9513 70.55 48.3112 70.39L48.7613 71.74C48.2813 72.1 47.5013 72.45 46.4212 72.79C45.3612 73.13 44.3912 73.3 43.5113 73.3ZM50.598 64.63C50.598 62.83 50.968 61.27 51.708 59.95C52.448 58.63 53.418 57.63 54.618 56.95C55.838 56.25 57.138 55.9 58.518 55.9C61.038 55.9 62.928 56.7 64.188 58.3C65.468 59.9 66.108 62 66.108 64.6C66.108 66.42 65.738 67.99 64.998 69.31C64.258 70.63 63.278 71.63 62.058 72.31C60.858 72.99 59.568 73.33 58.188 73.33C55.668 73.33 53.768 72.53 52.488 70.93C51.228 69.33 50.598 67.23 50.598 64.63ZM58.368 71.62C59.748 71.62 60.808 71.05 61.548 69.91C62.288 68.77 62.658 67.08 62.658 64.84C62.658 62.62 62.318 60.86 61.638 59.56C60.958 58.26 59.868 57.61 58.368 57.61C56.988 57.61 55.918 58.18 55.158 59.32C54.418 60.46 54.048 62.15 54.048 64.39C54.048 66.61 54.398 68.37 55.098 69.67C55.798 70.97 56.888 71.62 58.368 71.62ZM67.44 49L72.24 48.43H72.3L72.99 48.88V57.91C73.59 57.33 74.3 56.85 75.12 56.47C75.96 56.09 76.89 55.9 77.91 55.9C79.11 55.9 80.2 56.19 81.18 56.77C82.18 57.35 82.97 58.25 83.55 59.47C84.15 60.69 84.45 62.23 84.45 64.09C84.45 65.81 84.09 67.37 83.37 68.77C82.67 70.17 81.66 71.28 80.34 72.1C79.02 72.92 77.49 73.33 75.75 73.33C74.37 73.33 73.11 73.2 71.97 72.94C70.83 72.66 70.14 72.41 69.9 72.19V50.59L67.44 50.26V49ZM76.68 58.03C75.92 58.03 75.21 58.21 74.55 58.57C73.91 58.91 73.39 59.3 72.99 59.74V70.78C73.11 71.06 73.45 71.29 74.01 71.47C74.59 71.63 75.24 71.71 75.96 71.71C77.5 71.71 78.74 71.09 79.68 69.85C80.62 68.61 81.09 66.8 81.09 64.42C81.09 62.28 80.68 60.68 79.86 59.62C79.04 58.56 77.98 58.03 76.68 58.03ZM94.4527 73.33C92.0327 73.33 90.1827 72.54 88.9027 70.96C87.6427 69.38 87.0127 67.27 87.0127 64.63C87.0127 62.89 87.3427 61.36 88.0027 60.04C88.6627 58.72 89.5827 57.7 90.7627 56.98C91.9627 56.26 93.3227 55.9 94.8427 55.9C96.7027 55.9 98.1427 56.42 99.1627 57.46C100.203 58.48 100.753 59.95 100.813 61.87C100.813 63.09 100.743 64.02 100.603 64.66H90.2827C90.3227 66.64 90.7827 68.24 91.6627 69.46C92.5427 70.66 93.7927 71.26 95.4127 71.26C96.2127 71.26 97.0427 71.12 97.9027 70.84C98.7827 70.54 99.4627 70.19 99.9427 69.79L100.513 71.11C99.9327 71.71 99.0727 72.23 97.9327 72.67C96.7927 73.11 95.6327 73.33 94.4527 73.33ZM97.5127 63.07C97.5727 62.65 97.6027 62.22 97.6027 61.78C97.5827 60.48 97.3027 59.46 96.7627 58.72C96.2427 57.96 95.4127 57.58 94.2727 57.58C93.1127 57.58 92.1827 58 91.4827 58.84C90.8027 59.68 90.4127 61.09 90.3127 63.07H97.5127ZM103.451 71.53L105.701 71.35V58.66L103.541 58.12V56.5L107.681 55.96H107.741L108.401 56.5V57.04L108.311 59.38H108.401C108.601 59.04 108.961 58.6 109.481 58.06C110.001 57.52 110.671 57.03 111.491 56.59C112.311 56.13 113.201 55.9 114.161 55.9C114.561 55.9 114.891 55.95 115.151 56.05V59.41C115.011 59.31 114.781 59.22 114.461 59.14C114.161 59.04 113.821 58.99 113.441 58.99C111.781 58.99 110.241 59.5 108.821 60.52V71.32L112.631 71.56V73H103.451V71.53ZM124.31 71.74C126.15 70.7 127.84 69.51 129.38 68.17C130.92 66.81 132.14 65.41 133.04 63.97C133.96 62.53 134.42 61.17 134.42 59.89C134.42 58.79 134.09 57.92 133.43 57.28C132.77 56.62 131.83 56.29 130.61 56.29C129.47 56.29 128.49 56.52 127.67 56.98C126.85 57.42 126.09 57.97 125.39 58.63L124.43 57.28C125.13 56.46 126.13 55.72 127.43 55.06C128.73 54.38 130.12 54.04 131.6 54.04C133 54.04 134.18 54.3 135.14 54.82C136.1 55.32 136.81 55.98 137.27 56.8C137.73 57.62 137.96 58.52 137.96 59.5C137.96 61.48 137.01 63.52 135.11 65.62C133.21 67.7 130.83 69.57 127.97 71.23L137.27 70.54L138.32 67.96L139.85 68.26L139.07 73H124.76L124.31 71.74ZM152.68 73H142.72L141.94 71.65C143.12 69.41 144.57 66.45 146.29 62.77C148.01 59.07 149.55 55.68 150.91 52.6H151.69L154.09 53.89L145.99 69.49L144.79 71.32L152.68 70.9L152.8 65.05L155.35 64.84V70.75L159.58 70.54V73H155.35V77.83H152.68V73ZM166.617 73.3C165.477 73.3 164.627 73.04 164.067 72.52C163.507 72 163.227 71.11 163.227 69.85V58.33H161.067V56.98C161.167 56.96 161.447 56.89 161.907 56.77C162.367 56.65 162.677 56.54 162.837 56.44C163.157 56.26 163.407 55.9 163.587 55.36C163.747 54.98 163.937 54.37 164.157 53.53C164.377 52.69 164.507 52.19 164.547 52.03H166.317L166.377 56.35H171.387V58.33H166.377V67.54C166.377 68.68 166.407 69.48 166.467 69.94C166.547 70.4 166.697 70.7 166.917 70.84C167.157 70.98 167.557 71.05 168.117 71.05C168.657 71.05 169.247 70.98 169.887 70.84C170.547 70.7 171.057 70.55 171.417 70.39L171.867 71.74C171.387 72.1 170.607 72.45 169.527 72.79C168.467 73.13 167.497 73.3 166.617 73.3ZM175.324 50.62L172.804 50.29V49L177.694 48.43H177.754L178.414 48.88V55.84L178.294 58.39C178.934 57.81 179.814 57.26 180.934 56.74C182.054 56.22 183.184 55.96 184.324 55.96C185.584 55.96 186.564 56.2 187.264 56.68C187.964 57.16 188.454 57.9 188.734 58.9C189.014 59.88 189.154 61.21 189.154 62.89V71.26L191.254 71.53V73H184.084V71.53L186.034 71.26V62.86C186.034 61.68 185.954 60.76 185.794 60.1C185.634 59.42 185.334 58.92 184.894 58.6C184.454 58.26 183.794 58.09 182.914 58.09C182.194 58.09 181.424 58.27 180.604 58.63C179.784 58.99 179.064 59.41 178.444 59.89V71.26L180.514 71.53V73H173.524V71.53L175.324 71.29V50.62ZM9.93 97.04C11.61 97.04 13.03 97.43 14.19 98.21C15.35 98.97 16.21 100.02 16.77 101.36C17.35 102.7 17.64 104.21 17.64 105.89C17.64 108.53 17.08 110.94 15.96 113.12C14.84 115.3 13.37 117.07 11.55 118.43C9.75 119.81 7.84 120.67 5.82 121.01L5.13 119.69C7.45 118.93 9.34 117.7 10.8 116C12.26 114.3 13.25 112.32 13.77 110.06C13.27 110.64 12.59 111.14 11.73 111.56C10.87 111.96 9.94 112.16 8.94 112.16C7.56 112.16 6.35 111.87 5.31 111.29C4.29 110.69 3.5 109.85 2.94 108.77C2.38 107.67 2.1 106.4 2.1 104.96C2.1 103.54 2.41 102.23 3.03 101.03C3.67 99.83 4.58 98.87 5.76 98.15C6.94 97.41 8.33 97.04 9.93 97.04ZM9.57 110.33C10.65 110.33 11.61 110.08 12.45 109.58C13.29 109.06 13.85 108.51 14.13 107.93L14.22 106.55C14.22 104.11 13.89 102.17 13.23 100.73C12.59 99.29 11.42 98.57 9.72 98.57C8.8 98.57 8.01 98.85 7.35 99.41C6.71 99.95 6.23 100.66 5.91 101.54C5.59 102.42 5.43 103.35 5.43 104.33C5.43 106.39 5.8 107.91 6.54 108.89C7.3 109.85 8.31 110.33 9.57 110.33ZM24.7547 103.91C24.2347 103.91 23.7847 103.74 23.4047 103.4C23.0447 103.04 22.8647 102.58 22.8647 102.02C22.8647 101.38 23.0847 100.86 23.5247 100.46C23.9647 100.04 24.4947 99.83 25.1147 99.83C25.7347 99.83 26.2047 100.01 26.5247 100.37C26.8447 100.73 27.0047 101.18 27.0047 101.72C27.0047 102.38 26.7847 102.91 26.3447 103.31C25.9247 103.71 25.3947 103.91 24.7547 103.91ZM24.7547 116.3C24.2347 116.3 23.7847 116.12 23.4047 115.76C23.0447 115.4 22.8647 114.94 22.8647 114.38C22.8647 113.76 23.0847 113.24 23.5247 112.82C23.9647 112.4 24.4947 112.19 25.1147 112.19C25.7147 112.19 26.1747 112.38 26.4947 112.76C26.8347 113.12 27.0047 113.57 27.0047 114.11C27.0047 114.77 26.7847 115.3 26.3447 115.7C25.9247 116.1 25.3947 116.3 24.7547 116.3ZM39.6272 116.27C37.0672 116.27 35.1472 115.39 33.8672 113.63C32.6072 111.85 31.9772 109.56 31.9772 106.76C31.9772 104.8 32.3372 103.09 33.0572 101.63C33.7772 100.15 34.7572 99.02 35.9972 98.24C37.2372 97.46 38.5972 97.07 40.0772 97.07C42.6772 97.07 44.5772 97.91 45.7772 99.59C46.9772 101.25 47.5772 103.53 47.5772 106.43C47.5772 108.37 47.2272 110.09 46.5272 111.59C45.8472 113.07 44.8972 114.22 43.6772 115.04C42.4772 115.86 41.1272 116.27 39.6272 116.27ZM39.7472 114.74C42.7272 114.74 44.2172 112.07 44.2172 106.73C44.2172 104.13 43.8772 102.13 43.1972 100.73C42.5372 99.33 41.4172 98.63 39.8372 98.63C38.2972 98.63 37.1572 99.3 36.4172 100.64C35.6772 101.96 35.3072 103.86 35.3072 106.34C35.3072 108.88 35.6572 110.92 36.3572 112.46C37.0772 113.98 38.2072 114.74 39.7472 114.74ZM58.9045 116.27C56.3445 116.27 54.4245 115.39 53.1445 113.63C51.8845 111.85 51.2545 109.56 51.2545 106.76C51.2545 104.8 51.6145 103.09 52.3345 101.63C53.0545 100.15 54.0345 99.02 55.2745 98.24C56.5145 97.46 57.8745 97.07 59.3545 97.07C61.9545 97.07 63.8545 97.91 65.0545 99.59C66.2545 101.25 66.8545 103.53 66.8545 106.43C66.8545 108.37 66.5045 110.09 65.8045 111.59C65.1245 113.07 64.1745 114.22 62.9545 115.04C61.7545 115.86 60.4045 116.27 58.9045 116.27ZM59.0245 114.74C62.0045 114.74 63.4945 112.07 63.4945 106.73C63.4945 104.13 63.1545 102.13 62.4745 100.73C61.8145 99.33 60.6945 98.63 59.1145 98.63C57.5745 98.63 56.4345 99.3 55.6945 100.64C54.9545 101.96 54.5845 103.86 54.5845 106.34C54.5845 108.88 54.9345 110.92 55.6345 112.46C56.3545 113.98 57.4845 114.74 59.0245 114.74ZM84.491 93.53H87.791L95.081 114.23L96.941 114.53V116H89.021V114.53L91.511 114.23L90.101 109.79H81.341L79.931 114.23L82.511 114.53V116H75.401V114.53L77.261 114.23L84.491 93.53ZM86.381 98.33L85.631 95.69L84.911 98.39L81.881 108.02H89.531L86.381 98.33ZM101.483 95.57L98.2125 95.21V93.71H106.162L110.392 107.21L111.382 111.02L112.282 107.21L116.482 93.71H124.372V95.21L121.072 95.57L123.473 114.2L126.083 114.53V116H117.442V114.53L120.173 114.23L118.822 100.76L118.193 94.97L116.933 99.29L111.923 114.98H109.972L105.112 100.61L103.342 94.94L102.803 100.76L101.602 114.23L104.572 114.53V116H96.7425V114.53L99.2925 114.23L101.483 95.57ZM148.869 107.48H136.749V105.29H148.869V107.48ZM171.196 116H161.236L160.456 114.65C161.636 112.41 163.086 109.45 164.806 105.77C166.526 102.07 168.066 98.68 169.426 95.6H170.206L172.606 96.89L164.506 112.49L163.306 114.32L171.196 113.9L171.316 108.05L173.866 107.84V113.75L178.096 113.54V116H173.866V120.83H171.196V116ZM183.602 103.91C183.082 103.91 182.632 103.74 182.252 103.4C181.892 103.04 181.712 102.58 181.712 102.02C181.712 101.38 181.932 100.86 182.372 100.46C182.812 100.04 183.342 99.83 183.962 99.83C184.582 99.83 185.052 100.01 185.372 100.37C185.692 100.73 185.852 101.18 185.852 101.72C185.852 102.38 185.632 102.91 185.192 103.31C184.772 103.71 184.242 103.91 183.602 103.91ZM183.602 116.3C183.082 116.3 182.632 116.12 182.252 115.76C181.892 115.4 181.712 114.94 181.712 114.38C181.712 113.76 181.932 113.24 182.372 112.82C182.812 112.4 183.342 112.19 183.962 112.19C184.562 112.19 185.022 112.38 185.342 112.76C185.682 113.12 185.852 113.57 185.852 114.11C185.852 114.77 185.632 115.3 185.192 115.7C184.772 116.1 184.242 116.3 183.602 116.3ZM190.315 107.63C190.315 105.83 190.685 104.27 191.425 102.95C192.165 101.63 193.135 100.63 194.335 99.95C195.555 99.25 196.855 98.9 198.235 98.9C200.755 98.9 202.645 99.7 203.905 101.3C205.185 102.9 205.825 105 205.825 107.6C205.825 109.42 205.455 110.99 204.715 112.31C203.975 113.63 202.995 114.63 201.775 115.31C200.575 115.99 199.285 116.33 197.905 116.33C195.385 116.33 193.485 115.53 192.205 113.93C190.945 112.33 190.315 110.23 190.315 107.63ZM198.085 114.62C199.465 114.62 200.525 114.05 201.265 112.91C202.005 111.77 202.375 110.08 202.375 107.84C202.375 105.62 202.035 103.86 201.355 102.56C200.675 101.26 199.585 100.61 198.085 100.61C196.705 100.61 195.635 101.18 194.875 102.32C194.135 103.46 193.765 105.15 193.765 107.39C193.765 109.61 194.115 111.37 194.815 112.67C195.515 113.97 196.605 114.62 198.085 114.62ZM208.567 107.63C208.567 105.83 208.937 104.27 209.677 102.95C210.417 101.63 211.387 100.63 212.587 99.95C213.807 99.25 215.107 98.9 216.487 98.9C219.007 98.9 220.897 99.7 222.157 101.3C223.437 102.9 224.077 105 224.077 107.6C224.077 109.42 223.707 110.99 222.967 112.31C222.227 113.63 221.247 114.63 220.027 115.31C218.827 115.99 217.537 116.33 216.157 116.33C213.637 116.33 211.737 115.53 210.457 113.93C209.197 112.33 208.567 110.23 208.567 107.63ZM216.337 114.62C217.717 114.62 218.777 114.05 219.517 112.91C220.257 111.77 220.627 110.08 220.627 107.84C220.627 105.62 220.287 103.86 219.607 102.56C218.927 101.26 217.837 100.61 216.337 100.61C214.957 100.61 213.887 101.18 213.127 102.32C212.387 103.46 212.017 105.15 212.017 107.39C212.017 109.61 212.367 111.37 213.067 112.67C213.767 113.97 214.857 114.62 216.337 114.62ZM236.518 95.57L234.178 95.21V93.71H238.168C238.888 93.71 239.598 93.68 240.298 93.62C241.378 93.54 242.398 93.5 243.358 93.5C246.258 93.52 248.308 94.06 249.508 95.12C250.708 96.18 251.308 97.78 251.308 99.92C251.308 101.52 250.938 102.91 250.198 104.09C249.458 105.27 248.428 106.17 247.108 106.79C245.808 107.41 244.308 107.72 242.608 107.72C242.028 107.72 241.438 107.71 240.838 107.69C240.238 107.65 239.868 107.62 239.728 107.6V114.2L243.838 114.53V116H234.028V114.53L236.518 114.23V95.57ZM239.728 105.95C240.288 106.05 241.248 106.1 242.608 106.1C244.188 106.1 245.468 105.62 246.448 104.66C247.448 103.7 247.948 102.13 247.948 99.95C247.948 98.23 247.518 97 246.658 96.26C245.798 95.5 244.458 95.12 242.638 95.12C241.998 95.12 241.318 95.16 240.598 95.24C240.158 95.28 239.868 95.3 239.728 95.3V105.95ZM256.99 95.57L253.72 95.21V93.71H261.67L265.9 107.21L266.89 111.02L267.79 107.21L271.99 93.71H279.88V95.21L276.58 95.57L278.98 114.2L281.59 114.53V116H272.95V114.53L275.68 114.23L274.33 100.76L273.7 94.97L272.44 99.29L267.43 114.98H265.48L260.62 100.61L258.85 94.94L258.31 100.76L257.11 114.23L260.08 114.53V116H252.25V114.53L254.8 114.23L256.99 95.57ZM8.7 137.53H12L19.29 158.23L21.15 158.53V160H13.23V158.53L15.72 158.23L14.31 153.79H5.55L4.14 158.23L6.72 158.53V160H-0.39V158.53L1.47 158.23L8.7 137.53ZM10.59 142.33L9.84 139.69L9.12 142.39L6.09 152.02H13.74L10.59 142.33ZM21.7615 151.78C21.7615 150.12 22.0815 148.62 22.7215 147.28C23.3815 145.94 24.3415 144.88 25.6015 144.1C26.8815 143.3 28.4115 142.9 30.1915 142.9C31.0515 142.9 31.7915 142.98 32.4115 143.14C33.0315 143.3 33.7715 143.52 34.6315 143.8L34.5115 148.42H32.5615L31.9015 145.36C31.7815 144.8 31.0215 144.52 29.6215 144.52C28.2215 144.52 27.1115 145.09 26.2915 146.23C25.4915 147.35 25.0915 148.95 25.0915 151.03C25.0915 153.39 25.5415 155.19 26.4415 156.43C27.3615 157.65 28.5515 158.26 30.0115 158.26C30.8515 158.26 31.6415 158.13 32.3815 157.87C33.1415 157.61 33.7915 157.3 34.3315 156.94L34.9015 158.14C34.3615 158.7 33.5615 159.21 32.5015 159.67C31.4615 160.11 30.4015 160.33 29.3215 160.33C27.6815 160.33 26.2915 159.96 25.1515 159.22C24.0315 158.48 23.1815 157.47 22.6015 156.19C22.0415 154.89 21.7615 153.42 21.7615 151.78ZM39.0923 137.62L36.7523 137.29V136L41.5223 135.43H41.5523L42.2123 135.88V150.55L42.1523 152.32L49.0823 145.15L46.8323 144.73V143.35H54.0923V144.73L51.7223 145.15L47.3123 149.44L53.0123 158.29L54.8723 158.53V160H47.5823V158.53L49.4723 158.26L45.2423 151.3L42.1523 154.36L42.2123 155.89V158.26L44.3423 158.53V160H37.2023V158.53L39.0923 158.26V137.62ZM62.8706 160.33C60.4506 160.33 58.6006 159.54 57.3206 157.96C56.0606 156.38 55.4306 154.27 55.4306 151.63C55.4306 149.89 55.7606 148.36 56.4206 147.04C57.0806 145.72 58.0006 144.7 59.1806 143.98C60.3806 143.26 61.7406 142.9 63.2606 142.9C65.1206 142.9 66.5606 143.42 67.5806 144.46C68.6206 145.48 69.1706 146.95 69.2306 148.87C69.2306 150.09 69.1606 151.02 69.0206 151.66H58.7006C58.7406 153.64 59.2006 155.24 60.0806 156.46C60.9606 157.66 62.2106 158.26 63.8306 158.26C64.6306 158.26 65.4606 158.12 66.3206 157.84C67.2006 157.54 67.8806 157.19 68.3606 156.79L68.9306 158.11C68.3506 158.71 67.4906 159.23 66.3506 159.67C65.2106 160.11 64.0506 160.33 62.8706 160.33ZM65.9306 150.07C65.9906 149.65 66.0206 149.22 66.0206 148.78C66.0006 147.48 65.7206 146.46 65.1806 145.72C64.6606 144.96 63.8306 144.58 62.6906 144.58C61.5306 144.58 60.6006 145 59.9006 145.84C59.2206 146.68 58.8306 148.09 58.7306 150.07H65.9306ZM71.869 158.53L74.119 158.35V145.66L71.959 145.12V143.5L76.099 142.96H76.159L76.819 143.5V144.04L76.729 146.38H76.819C77.019 146.04 77.379 145.6 77.899 145.06C78.419 144.52 79.089 144.03 79.909 143.59C80.729 143.13 81.619 142.9 82.579 142.9C82.979 142.9 83.309 142.95 83.569 143.05V146.41C83.429 146.31 83.199 146.22 82.879 146.14C82.579 146.04 82.239 145.99 81.859 145.99C80.199 145.99 78.659 146.5 77.239 147.52V158.32L81.049 158.56V160H71.869V158.53ZM85.5192 158.53L87.3492 158.26V145.66L85.1892 145.12V143.5L89.4792 142.96L90.0192 143.35L90.1992 144.55L90.1692 145.51C90.8692 144.87 91.8192 144.29 93.0192 143.77C94.2392 143.23 95.3292 142.96 96.2892 142.96C97.3692 142.96 98.2392 143.14 98.8992 143.5C99.5592 143.86 100.059 144.42 100.399 145.18C101.039 144.64 101.929 144.14 103.069 143.68C104.229 143.2 105.309 142.96 106.309 142.96C107.549 142.96 108.519 143.2 109.219 143.68C109.919 144.14 110.409 144.87 110.689 145.87C110.989 146.85 111.139 148.17 111.139 149.83V158.26L113.299 158.53V160H106.159V158.53L108.019 158.26V149.92C108.019 148.76 107.929 147.84 107.749 147.16C107.589 146.46 107.269 145.94 106.789 145.6C106.329 145.26 105.659 145.09 104.779 145.09C104.119 145.09 103.419 145.24 102.679 145.54C101.939 145.82 101.309 146.16 100.789 146.56C100.969 147.34 101.059 148.45 101.059 149.89V158.26L103.189 158.53V160H95.9292V158.53L97.9092 158.26V149.86C97.9092 148.66 97.8292 147.73 97.6692 147.07C97.5292 146.41 97.2492 145.92 96.8292 145.6C96.4092 145.26 95.7692 145.09 94.9092 145.09C94.1892 145.09 93.4192 145.27 92.5992 145.63C91.7992 145.99 91.0992 146.41 90.4992 146.89V158.26L92.5092 158.53V160H85.5192V158.53ZM115.403 155.5C115.403 153.62 116.343 152.24 118.223 151.36C120.103 150.46 122.483 149.98 125.363 149.92V149.08C125.363 148.14 125.263 147.4 125.063 146.86C124.863 146.32 124.513 145.93 124.013 145.69C123.533 145.43 122.843 145.3 121.943 145.3C120.923 145.3 120.003 145.45 119.183 145.75C118.383 146.03 117.583 146.38 116.783 146.8L116.033 145.24C116.293 145.02 116.773 144.73 117.473 144.37C118.173 144.01 118.983 143.69 119.903 143.41C120.823 143.13 121.743 142.99 122.663 142.99C124.083 142.99 125.203 143.19 126.023 143.59C126.863 143.97 127.463 144.59 127.823 145.45C128.183 146.31 128.363 147.46 128.363 148.9V158.53H130.133V159.85C129.733 159.95 129.223 160.05 128.603 160.15C128.003 160.25 127.473 160.3 127.013 160.3C126.453 160.3 126.073 160.21 125.873 160.03C125.673 159.87 125.573 159.5 125.573 158.92V157.93C124.973 158.53 124.233 159.08 123.353 159.58C122.493 160.08 121.513 160.33 120.413 160.33C118.973 160.33 117.773 159.92 116.813 159.1C115.873 158.26 115.403 157.06 115.403 155.5ZM121.703 158.29C122.223 158.29 122.823 158.13 123.503 157.81C124.183 157.49 124.803 157.11 125.363 156.67V151.51C123.183 151.51 121.533 151.85 120.413 152.53C119.313 153.19 118.763 154.06 118.763 155.14C118.763 156.22 119.023 157.02 119.543 157.54C120.083 158.04 120.803 158.29 121.703 158.29ZM134.019 145.66L131.859 145.12V143.5L136.149 142.96H136.239L136.869 143.5V144.76L136.839 145.48C137.559 144.84 138.509 144.26 139.689 143.74C140.869 143.22 141.999 142.96 143.079 142.96C144.339 142.96 145.309 143.2 145.989 143.68C146.689 144.16 147.179 144.9 147.459 145.9C147.739 146.88 147.879 148.21 147.879 149.89V158.29L149.979 158.5V160H142.869V158.53L144.729 158.29V149.86C144.729 148.68 144.649 147.76 144.489 147.1C144.329 146.42 144.029 145.92 143.589 145.6C143.149 145.26 142.509 145.09 141.669 145.09C140.949 145.09 140.179 145.27 139.359 145.63C138.539 145.99 137.809 146.41 137.169 146.89V158.26L139.209 158.53V160H132.129V158.53L134.019 158.26V145.66ZM169.61 160.33C167.45 160.33 165.58 159.85 164 158.89C162.44 157.93 161.25 156.61 160.43 154.93C159.61 153.23 159.2 151.31 159.2 149.17C159.2 146.71 159.68 144.6 160.64 142.84C161.62 141.08 162.97 139.75 164.69 138.85C166.41 137.93 168.37 137.47 170.57 137.47C172.59 137.47 174.92 137.78 177.56 138.4L177.29 143.59H175.16L174.44 139.99C174.16 139.77 173.68 139.56 173 139.36C172.34 139.16 171.45 139.06 170.33 139.06C168.87 139.06 167.58 139.42 166.46 140.14C165.34 140.86 164.46 141.93 163.82 143.35C163.2 144.77 162.89 146.49 162.89 148.51C162.89 150.37 163.14 152.07 163.64 153.61C164.16 155.15 164.94 156.39 165.98 157.33C167.04 158.25 168.33 158.71 169.85 158.71C170.81 158.71 171.72 158.6 172.58 158.38C173.44 158.14 174.1 157.83 174.56 157.45V150.76L170.78 150.46V148.69H179.54V150.46L177.8 150.73V158.8C177.36 158.82 176.63 158.99 175.61 159.31C174.57 159.63 173.59 159.88 172.67 160.06C171.75 160.24 170.73 160.33 169.61 160.33ZM181.527 158.53L183.777 158.35V145.66L181.617 145.12V143.5L185.757 142.96H185.817L186.477 143.5V144.04L186.387 146.38H186.477C186.677 146.04 187.037 145.6 187.557 145.06C188.077 144.52 188.747 144.03 189.567 143.59C190.387 143.13 191.277 142.9 192.237 142.9C192.637 142.9 192.967 142.95 193.227 143.05V146.41C193.087 146.31 192.857 146.22 192.537 146.14C192.237 146.04 191.897 145.99 191.517 145.99C189.857 145.99 188.317 146.5 186.897 147.52V158.32L190.707 158.56V160H181.527V158.53ZM195.207 155.5C195.207 153.62 196.147 152.24 198.027 151.36C199.907 150.46 202.287 149.98 205.167 149.92V149.08C205.167 148.14 205.067 147.4 204.867 146.86C204.667 146.32 204.317 145.93 203.817 145.69C203.337 145.43 202.647 145.3 201.747 145.3C200.727 145.3 199.807 145.45 198.987 145.75C198.187 146.03 197.387 146.38 196.587 146.8L195.837 145.24C196.097 145.02 196.577 144.73 197.277 144.37C197.977 144.01 198.787 143.69 199.707 143.41C200.627 143.13 201.547 142.99 202.467 142.99C203.887 142.99 205.007 143.19 205.827 143.59C206.667 143.97 207.267 144.59 207.627 145.45C207.987 146.31 208.167 147.46 208.167 148.9V158.53H209.937V159.85C209.537 159.95 209.027 160.05 208.407 160.15C207.807 160.25 207.277 160.3 206.817 160.3C206.257 160.3 205.877 160.21 205.677 160.03C205.477 159.87 205.377 159.5 205.377 158.92V157.93C204.777 158.53 204.037 159.08 203.157 159.58C202.297 160.08 201.317 160.33 200.217 160.33C198.777 160.33 197.577 159.92 196.617 159.1C195.677 158.26 195.207 157.06 195.207 155.5ZM201.507 158.29C202.027 158.29 202.627 158.13 203.307 157.81C203.987 157.49 204.607 157.11 205.167 156.67V151.51C202.987 151.51 201.337 151.85 200.217 152.53C199.117 153.19 198.567 154.06 198.567 155.14C198.567 156.22 198.827 157.02 199.347 157.54C199.887 158.04 200.607 158.29 201.507 158.29ZM213.824 145.66L211.664 145.12V143.5L215.954 142.96H216.044L216.674 143.5V144.76L216.644 145.48C217.364 144.84 218.314 144.26 219.494 143.74C220.674 143.22 221.804 142.96 222.884 142.96C224.144 142.96 225.114 143.2 225.794 143.68C226.494 144.16 226.984 144.9 227.264 145.9C227.544 146.88 227.684 148.21 227.684 149.89V158.29L229.784 158.5V160H222.674V158.53L224.534 158.29V149.86C224.534 148.68 224.454 147.76 224.294 147.1C224.134 146.42 223.834 145.92 223.394 145.6C222.954 145.26 222.314 145.09 221.474 145.09C220.754 145.09 219.984 145.27 219.164 145.63C218.344 145.99 217.614 146.41 216.974 146.89V158.26L219.014 158.53V160H211.934V158.53L213.824 158.26V145.66ZM238.426 160.33C237.226 160.33 236.126 160.03 235.126 159.43C234.126 158.83 233.326 157.91 232.726 156.67C232.146 155.43 231.856 153.9 231.856 152.08C231.856 150.38 232.206 148.83 232.906 147.43C233.606 146.03 234.606 144.93 235.906 144.13C237.226 143.31 238.776 142.9 240.556 142.9C241.576 142.9 242.506 143.01 243.346 143.23V137.62L240.286 137.26V135.97L245.686 135.43H245.776L246.436 135.91V158.47H248.176V159.85C247.536 159.99 246.976 160.1 246.496 160.18C246.036 160.26 245.546 160.3 245.026 160.3C244.506 160.3 244.136 160.21 243.916 160.03C243.696 159.85 243.586 159.47 243.586 158.89V157.93C243.026 158.61 242.286 159.18 241.366 159.64C240.466 160.1 239.486 160.33 238.426 160.33ZM239.626 158.2C240.406 158.2 241.136 158.03 241.816 157.69C242.496 157.33 243.006 156.92 243.346 156.46V145.48C243.186 145.24 242.806 145.03 242.206 144.85C241.626 144.65 241.006 144.55 240.346 144.55C238.786 144.55 237.536 145.15 236.596 146.35C235.676 147.53 235.216 149.36 235.216 151.84C235.216 154 235.626 155.6 236.446 156.64C237.266 157.68 238.326 158.2 239.626 158.2ZM260.218 139.57L257.758 139.21V137.71H261.808C262.488 137.71 263.348 137.67 264.388 137.59C265.348 137.51 266.058 137.47 266.518 137.47C269.278 137.47 271.248 137.9 272.428 138.76C273.628 139.62 274.228 140.88 274.228 142.54C274.228 143.96 273.818 145.18 272.998 146.2C272.178 147.22 271.058 147.86 269.638 148.12C271.558 148.08 273.068 148.53 274.168 149.47C275.268 150.41 275.818 151.69 275.818 153.31C275.818 155.33 275.098 156.98 273.658 158.26C272.238 159.54 269.878 160.18 266.578 160.18C265.858 160.18 265.168 160.15 264.508 160.09C262.948 160.03 262.018 160 261.718 160H257.728V158.53L260.218 158.23V139.57ZM263.398 147.55C263.678 147.57 264.248 147.58 265.108 147.58H266.758C268.158 147.58 269.218 147.19 269.938 146.41C270.658 145.63 271.018 144.52 271.018 143.08C271.018 141.68 270.658 140.66 269.938 140.02C269.218 139.36 267.988 139.03 266.248 139.03C265.528 139.03 264.788 139.07 264.028 139.15L263.398 139.21V147.55ZM263.398 158.32C263.858 158.48 264.898 158.56 266.518 158.56C268.538 158.56 269.998 158.15 270.898 157.33C271.818 156.49 272.278 155.29 272.278 153.73C272.278 152.19 271.878 151.07 271.078 150.37C270.298 149.67 269.028 149.32 267.268 149.32C265.228 149.32 263.938 149.34 263.398 149.38V158.32ZM278.235 155.5C278.235 153.62 279.175 152.24 281.055 151.36C282.935 150.46 285.315 149.98 288.195 149.92V149.08C288.195 148.14 288.095 147.4 287.895 146.86C287.695 146.32 287.345 145.93 286.845 145.69C286.365 145.43 285.675 145.3 284.775 145.3C283.755 145.3 282.835 145.45 282.015 145.75C281.215 146.03 280.415 146.38 279.615 146.8L278.865 145.24C279.125 145.02 279.605 144.73 280.305 144.37C281.005 144.01 281.815 143.69 282.735 143.41C283.655 143.13 284.575 142.99 285.495 142.99C286.915 142.99 288.035 143.19 288.855 143.59C289.695 143.97 290.295 144.59 290.655 145.45C291.015 146.31 291.195 147.46 291.195 148.9V158.53H292.965V159.85C292.565 159.95 292.055 160.05 291.435 160.15C290.835 160.25 290.305 160.3 289.845 160.3C289.285 160.3 288.905 160.21 288.705 160.03C288.505 159.87 288.405 159.5 288.405 158.92V157.93C287.805 158.53 287.065 159.08 286.185 159.58C285.325 160.08 284.345 160.33 283.245 160.33C281.805 160.33 280.605 159.92 279.645 159.1C278.705 158.26 278.235 157.06 278.235 155.5ZM284.535 158.29C285.055 158.29 285.655 158.13 286.335 157.81C287.015 157.49 287.635 157.11 288.195 156.67V151.51C286.015 151.51 284.365 151.85 283.245 152.53C282.145 153.19 281.595 154.06 281.595 155.14C281.595 156.22 281.855 157.02 282.375 157.54C282.915 158.04 283.635 158.29 284.535 158.29ZM297.241 137.62L294.811 137.29V136L299.641 135.43H299.701L300.361 135.88V158.29L302.911 158.53V160H294.811V158.53L297.241 158.26V137.62ZM307.231 137.62L304.801 137.29V136L309.631 135.43H309.691L310.351 135.88V158.29L312.901 158.53V160H304.801V158.53L307.231 158.26V137.62ZM315.092 158.53L317.342 158.35V145.66L315.182 145.12V143.5L319.322 142.96H319.382L320.042 143.5V144.04L319.952 146.38H320.042C320.242 146.04 320.602 145.6 321.122 145.06C321.642 144.52 322.312 144.03 323.132 143.59C323.952 143.13 324.842 142.9 325.802 142.9C326.202 142.9 326.532 142.95 326.792 143.05V146.41C326.652 146.31 326.422 146.22 326.102 146.14C325.802 146.04 325.462 145.99 325.082 145.99C323.422 145.99 321.882 146.5 320.462 147.52V158.32L324.272 158.56V160H315.092V158.53ZM328.772 151.63C328.772 149.83 329.142 148.27 329.882 146.95C330.622 145.63 331.592 144.63 332.792 143.95C334.012 143.25 335.312 142.9 336.692 142.9C339.212 142.9 341.102 143.7 342.362 145.3C343.642 146.9 344.282 149 344.282 151.6C344.282 153.42 343.912 154.99 343.172 156.31C342.432 157.63 341.452 158.63 340.232 159.31C339.032 159.99 337.742 160.33 336.362 160.33C333.842 160.33 331.942 159.53 330.662 157.93C329.402 156.33 328.772 154.23 328.772 151.63ZM336.542 158.62C337.922 158.62 338.982 158.05 339.722 156.91C340.462 155.77 340.832 154.08 340.832 151.84C340.832 149.62 340.492 147.86 339.812 146.56C339.132 145.26 338.042 144.61 336.542 144.61C335.162 144.61 334.092 145.18 333.332 146.32C332.592 147.46 332.222 149.15 332.222 151.39C332.222 153.61 332.572 155.37 333.272 156.67C333.972 157.97 335.062 158.62 336.542 158.62ZM347.024 151.63C347.024 149.83 347.394 148.27 348.134 146.95C348.874 145.63 349.844 144.63 351.044 143.95C352.264 143.25 353.564 142.9 354.944 142.9C357.464 142.9 359.354 143.7 360.614 145.3C361.894 146.9 362.534 149 362.534 151.6C362.534 153.42 362.164 154.99 361.424 156.31C360.684 157.63 359.704 158.63 358.484 159.31C357.284 159.99 355.994 160.33 354.614 160.33C352.094 160.33 350.194 159.53 348.914 157.93C347.654 156.33 347.024 154.23 347.024 151.63ZM354.794 158.62C356.174 158.62 357.234 158.05 357.974 156.91C358.714 155.77 359.084 154.08 359.084 151.84C359.084 149.62 358.744 147.86 358.064 146.56C357.384 145.26 356.294 144.61 354.794 144.61C353.414 144.61 352.344 145.18 351.584 146.32C350.844 147.46 350.474 149.15 350.474 151.39C350.474 153.61 350.824 155.37 351.524 156.67C352.224 157.97 353.314 158.62 354.794 158.62ZM365.246 158.53L367.076 158.26V145.66L364.916 145.12V143.5L369.206 142.96L369.746 143.35L369.926 144.55L369.896 145.51C370.596 144.87 371.546 144.29 372.746 143.77C373.966 143.23 375.056 142.96 376.016 142.96C377.096 142.96 377.966 143.14 378.626 143.5C379.286 143.86 379.786 144.42 380.126 145.18C380.766 144.64 381.656 144.14 382.796 143.68C383.956 143.2 385.036 142.96 386.036 142.96C387.276 142.96 388.246 143.2 388.946 143.68C389.646 144.14 390.136 144.87 390.416 145.87C390.716 146.85 390.866 148.17 390.866 149.83V158.26L393.026 158.53V160H385.886V158.53L387.746 158.26V149.92C387.746 148.76 387.656 147.84 387.476 147.16C387.316 146.46 386.996 145.94 386.516 145.6C386.056 145.26 385.386 145.09 384.506 145.09C383.846 145.09 383.146 145.24 382.406 145.54C381.666 145.82 381.036 146.16 380.516 146.56C380.696 147.34 380.786 148.45 380.786 149.89V158.26L382.916 158.53V160H375.656V158.53L377.636 158.26V149.86C377.636 148.66 377.556 147.73 377.396 147.07C377.256 146.41 376.976 145.92 376.556 145.6C376.136 145.26 375.496 145.09 374.636 145.09C373.916 145.09 373.146 145.27 372.326 145.63C371.526 145.99 370.826 146.41 370.226 146.89V158.26L372.236 158.53V160H365.246V158.53ZM398.939 155.5C399.619 155.5 400.179 155.83 400.619 156.49C401.059 157.13 401.279 158.01 401.279 159.13C401.279 160.27 401.099 161.37 400.739 162.43C400.379 163.49 399.929 164.39 399.389 165.13C398.849 165.89 398.319 166.42 397.799 166.72H397.769L396.749 166V165.67C397.149 165.35 397.549 164.65 397.949 163.57C398.369 162.51 398.579 161.5 398.579 160.54C398.579 160.24 398.519 160 398.399 159.82C398.299 159.62 398.129 159.39 397.889 159.13C397.609 158.83 397.399 158.55 397.259 158.29C397.119 158.03 397.049 157.68 397.049 157.24C397.049 156.72 397.209 156.3 397.529 155.98C397.869 155.66 398.289 155.5 398.789 155.5H398.939ZM422.377 160.24C419.437 160.24 417.267 159.46 415.867 157.9C414.487 156.32 413.797 153.88 413.797 150.58V139.57L411.667 139.21V137.71H419.677V139.21L417.127 139.6V150.91C417.127 153.63 417.607 155.59 418.567 156.79C419.547 157.99 420.947 158.59 422.767 158.59C424.587 158.59 425.947 157.95 426.847 156.67C427.767 155.39 428.227 153.53 428.227 151.09V139.6L425.707 139.21V137.71H432.697V139.21L430.507 139.57V150.94C430.507 154.06 429.767 156.39 428.287 157.93C426.807 159.47 424.837 160.24 422.377 160.24ZM444.494 160.33C442.294 160.33 440.414 159.86 438.854 158.92C437.314 157.96 436.144 156.62 435.344 154.9C434.544 153.18 434.144 151.16 434.144 148.84C434.144 146.6 434.614 144.62 435.554 142.9C436.494 141.18 437.784 139.85 439.424 138.91C441.064 137.95 442.904 137.47 444.944 137.47C446.484 137.47 448.334 137.71 450.494 138.19L451.484 138.37L451.184 143.77H449.174L448.424 139.96C448.144 139.72 447.654 139.52 446.954 139.36C446.274 139.18 445.434 139.09 444.434 139.09C443.154 139.09 442.014 139.46 441.014 140.2C440.014 140.92 439.224 141.99 438.644 143.41C438.084 144.83 437.804 146.53 437.804 148.51C437.804 150.39 438.054 152.1 438.554 153.64C439.054 155.18 439.814 156.41 440.834 157.33C441.854 158.23 443.114 158.68 444.614 158.68C445.674 158.68 446.484 158.59 447.044 158.41C447.624 158.23 448.114 157.97 448.514 157.63L449.774 154.69L451.664 154.93L450.944 159.19C450.524 159.21 449.904 159.35 449.084 159.61C448.364 159.83 447.664 160 446.984 160.12C446.324 160.26 445.494 160.33 444.494 160.33ZM456.684 139.57L454.254 139.21V137.71H462.864V139.21L459.894 139.57V158.23L467.634 157.96L469.404 152.92L471.234 153.19L470.184 160H454.194V158.53L456.684 158.23V139.57ZM480.468 137.53H483.768L491.058 158.23L492.918 158.53V160H484.998V158.53L487.488 158.23L486.078 153.79H477.318L475.908 158.23L478.488 158.53V160H471.378V158.53L473.238 158.23L480.468 137.53ZM482.358 142.33L481.608 139.69L480.888 142.39L477.858 152.02H485.508L482.358 142.33Z" transform="translate(159 453)" fill="#909292"/>
<rect x="1" y="1" width="219" height="45" rx="7" transform="translate(1069 63)" stroke="#5FA193" stroke-width="2"/>
<path d="M4.30762 17.8877V24H1.38574V8.29492H5.20996C6.82845 8.29492 8.02083 8.67806 8.78711 9.44434C9.56055 10.2106 9.94727 11.3815 9.94727 12.957C9.94727 14.9408 9.27767 16.3265 7.93848 17.1143L10.957 24H7.83105L5.34961 17.8877H4.30762ZM4.30762 15.374H5.05957C5.74707 15.374 6.24121 15.1807 6.54199 14.7939C6.84277 14.4001 6.99316 13.8164 6.99316 13.043C6.99316 12.2409 6.83203 11.6715 6.50977 11.335C6.19466 10.9912 5.7041 10.8193 5.03809 10.8193H4.30762V15.374ZM17.2889 24.2148C15.7922 24.2148 14.6105 23.6849 13.744 22.625C12.8846 21.5579 12.4549 20.0505 12.4549 18.1025C12.4549 16.126 12.8452 14.5827 13.6258 13.4727C14.4064 12.3626 15.495 11.8076 16.8914 11.8076C18.1948 11.8076 19.2225 12.2839 19.9745 13.2363C20.7264 14.1816 21.1024 15.5101 21.1024 17.2217V18.7471H15.3553C15.3768 19.8141 15.5952 20.609 16.0106 21.1318C16.426 21.6475 16.9989 21.9053 17.7293 21.9053C18.6603 21.9053 19.6128 21.6152 20.5868 21.0352V23.3877C19.6701 23.9391 18.5708 24.2148 17.2889 24.2148ZM16.87 14.0098C16.4618 14.0098 16.1252 14.2282 15.8602 14.665C15.5952 15.0947 15.4412 15.7643 15.3983 16.6738H18.2987C18.2843 15.8001 18.1519 15.1377 17.9012 14.6865C17.6506 14.2354 17.3068 14.0098 16.87 14.0098ZM32.2682 12.0547V13.7305L30.8395 14.0527C31.1188 14.554 31.2585 15.1842 31.2585 15.9434C31.2585 17.2109 30.9147 18.2028 30.2272 18.9189C29.5397 19.6351 28.5801 19.9932 27.3483 19.9932C26.9902 19.9932 26.7253 19.9645 26.5534 19.9072C26.4173 20.029 26.2884 20.165 26.1667 20.3154C26.0449 20.4658 25.9841 20.652 25.9841 20.874C25.9841 21.3753 26.4173 21.626 27.2839 21.626H29.0134C30.0303 21.626 30.8109 21.9017 31.3552 22.4531C31.9066 22.9974 32.1823 23.821 32.1823 24.9238C32.1823 26.3132 31.7168 27.3874 30.7858 28.1465C29.8548 28.9056 28.5156 29.2852 26.7682 29.2852C25.4434 29.2852 24.4229 28.9951 23.7067 28.415C22.9906 27.8421 22.6325 27.0221 22.6325 25.9551C22.6325 25.2891 22.8366 24.7018 23.2448 24.1934C23.653 23.6921 24.2188 23.3268 24.9421 23.0977C24.5768 22.9544 24.2761 22.7324 24.0397 22.4316C23.8106 22.1309 23.696 21.7799 23.696 21.3789C23.696 21.1354 23.7318 20.917 23.8034 20.7236C23.875 20.5231 23.9753 20.3369 24.1042 20.165C24.2402 19.986 24.5124 19.7246 24.9206 19.3809C24.4264 19.0801 24.0361 18.6182 23.7497 17.9951C23.4632 17.3721 23.32 16.681 23.32 15.9219C23.32 14.6113 23.6637 13.598 24.3512 12.8818C25.0387 12.1657 26.0235 11.8076 27.3054 11.8076C27.5488 11.8076 27.8281 11.8363 28.1432 11.8936C28.4583 11.9437 28.6983 11.9974 28.863 12.0547H32.2682ZM25.2321 25.7402C25.2321 26.2129 25.3789 26.5745 25.6725 26.8252C25.9733 27.083 26.3994 27.2119 26.9509 27.2119C27.8174 27.2119 28.4655 27.0472 28.8952 26.7178C29.332 26.3883 29.5505 25.9372 29.5505 25.3643C29.5505 24.9131 29.4323 24.5944 29.196 24.4082C28.9668 24.222 28.5335 24.1289 27.8962 24.1289H26.5104C26.1237 24.1289 25.8122 24.2721 25.5759 24.5586C25.3467 24.8522 25.2321 25.2461 25.2321 25.7402ZM26.113 15.9434C26.113 17.3542 26.5104 18.0596 27.3054 18.0596C28.0788 18.0596 28.4655 17.347 28.4655 15.9219C28.4655 14.4609 28.0788 13.7305 27.3054 13.7305C26.5104 13.7305 26.113 14.4681 26.113 15.9434ZM37.2466 24H34.3892V12.0332H37.2466V24ZM34.271 8.90723C34.271 8.43457 34.4071 8.06217 34.6792 7.79004C34.9585 7.51074 35.3452 7.37109 35.8394 7.37109C36.3049 7.37109 36.6773 7.51074 36.9566 7.79004C37.2359 8.06217 37.3755 8.43457 37.3755 8.90723C37.3755 9.39421 37.2323 9.77376 36.9458 10.0459C36.6594 10.3109 36.2905 10.4434 35.8394 10.4434C35.3667 10.4434 34.9872 10.3109 34.7007 10.0459C34.4142 9.77376 34.271 9.39421 34.271 8.90723ZM46.7796 20.498C46.7796 21.6654 46.4359 22.5785 45.7484 23.2373C45.0681 23.889 44.0619 24.2148 42.7298 24.2148C41.5482 24.2148 40.5707 23.9821 39.7972 23.5166V21.0352C40.1911 21.3073 40.6494 21.5329 41.1722 21.7119C41.7022 21.891 42.1677 21.9805 42.5687 21.9805C43.0127 21.9805 43.3493 21.873 43.5785 21.6582C43.8148 21.4362 43.933 21.1462 43.933 20.7881C43.933 20.4229 43.8112 20.1042 43.5677 19.832C43.3242 19.5599 42.8767 19.2269 42.225 18.833C41.3584 18.3174 40.7354 17.7695 40.3558 17.1895C39.9834 16.6022 39.7972 15.9111 39.7972 15.1162C39.7972 14.0993 40.1446 13.2936 40.8392 12.6992C41.541 12.1048 42.5007 11.8076 43.7181 11.8076C44.778 11.8076 45.777 12.0869 46.7152 12.6455L45.7806 14.6973C45.0143 14.2819 44.3412 14.0742 43.7611 14.0742C43.3959 14.0742 43.1201 14.1709 42.9339 14.3643C42.7549 14.5576 42.6654 14.7939 42.6654 15.0732C42.6654 15.3955 42.7764 15.682 42.9984 15.9326C43.2276 16.1833 43.6501 16.4948 44.266 16.8672C45.0108 17.3184 45.5336 17.7015 45.8343 18.0166C46.1351 18.3317 46.3679 18.6898 46.5326 19.0908C46.6973 19.4919 46.7796 19.9609 46.7796 20.498ZM53.4016 21.7979C53.8026 21.7979 54.2359 21.6976 54.7014 21.4971V23.7314C54.2359 24.0537 53.5376 24.2148 52.6066 24.2148C51.5682 24.2148 50.7984 23.9069 50.2971 23.291C49.7958 22.668 49.5451 21.737 49.5451 20.498V14.2998H48.385V13.0215L49.8781 11.9902L50.6086 9.45508H52.4348V12.0332H54.6047V14.2998H52.4348V20.5947C52.4348 21.3968 52.757 21.7979 53.4016 21.7979ZM61.4522 24.2148C59.9554 24.2148 58.7738 23.6849 57.9073 22.625C57.0479 21.5579 56.6182 20.0505 56.6182 18.1025C56.6182 16.126 57.0085 14.5827 57.7891 13.4727C58.5697 12.3626 59.6582 11.8076 61.0547 11.8076C62.3581 11.8076 63.3858 12.2839 64.1377 13.2363C64.8897 14.1816 65.2657 15.5101 65.2657 17.2217V18.7471H59.5186C59.5401 19.8141 59.7585 20.609 60.1739 21.1318C60.5892 21.6475 61.1621 21.9053 61.8926 21.9053C62.8236 21.9053 63.7761 21.6152 64.75 21.0352V23.3877C63.8334 23.9391 62.7341 24.2148 61.4522 24.2148ZM61.0332 14.0098C60.625 14.0098 60.2884 14.2282 60.0235 14.665C59.7585 15.0947 59.6045 15.7643 59.5616 16.6738H62.462C62.4476 15.8001 62.3151 15.1377 62.0645 14.6865C61.8138 14.2354 61.4701 14.0098 61.0332 14.0098ZM72.9188 11.8076C73.2697 11.8076 73.6135 11.8613 73.9501 11.9688L73.6171 14.7402C73.4165 14.6686 73.1552 14.6328 72.8329 14.6328C72.1382 14.6328 71.6047 14.9085 71.2323 15.46C70.8599 16.0042 70.6737 16.7992 70.6737 17.8447V24H67.8163V12.0332H70.1688L70.4911 13.9023H70.5878C70.9029 13.1504 71.2466 12.6133 71.619 12.291C71.9914 11.9688 72.4247 11.8076 72.9188 11.8076ZM91.856 24H88.9341V17.1143H85.0777V24H82.1558V8.29492H85.0777V14.5361H88.9341V8.29492H91.856V24ZM99.5414 24.2148C98.0447 24.2148 96.863 23.6849 95.9965 22.625C95.1371 21.5579 94.7074 20.0505 94.7074 18.1025C94.7074 16.126 95.0977 14.5827 95.8783 13.4727C96.6589 12.3626 97.7475 11.8076 99.1439 11.8076C100.447 11.8076 101.475 12.2839 102.227 13.2363C102.979 14.1816 103.355 15.5101 103.355 17.2217V18.7471H97.6078C97.6293 19.8141 97.8477 20.609 98.2631 21.1318C98.6784 21.6475 99.2514 21.9053 99.9818 21.9053C100.913 21.9053 101.865 21.6152 102.839 21.0352V23.3877C101.923 23.9391 100.823 24.2148 99.5414 24.2148ZM99.1225 14.0098C98.7143 14.0098 98.3777 14.2282 98.1127 14.665C97.8477 15.0947 97.6937 15.7643 97.6508 16.6738H100.551C100.537 15.8001 100.404 15.1377 100.154 14.6865C99.9031 14.2354 99.5593 14.0098 99.1225 14.0098ZM111.008 11.8076C111.359 11.8076 111.703 11.8613 112.039 11.9688L111.706 14.7402C111.506 14.6686 111.244 14.6328 110.922 14.6328C110.227 14.6328 109.694 14.9085 109.322 15.46C108.949 16.0042 108.763 16.7992 108.763 17.8447V24H105.906V12.0332H108.258L108.58 13.9023H108.677C108.992 13.1504 109.336 12.6133 109.708 12.291C110.081 11.9688 110.514 11.8076 111.008 11.8076ZM118.393 24.2148C116.896 24.2148 115.714 23.6849 114.848 22.625C113.988 21.5579 113.559 20.0505 113.559 18.1025C113.559 16.126 113.949 14.5827 114.73 13.4727C115.51 12.3626 116.599 11.8076 117.995 11.8076C119.299 11.8076 120.326 12.2839 121.078 13.2363C121.83 14.1816 122.206 15.5101 122.206 17.2217V18.7471H116.459C116.481 19.8141 116.699 20.609 117.114 21.1318C117.53 21.6475 118.103 21.9053 118.833 21.9053C119.764 21.9053 120.717 21.6152 121.691 21.0352V23.3877C120.774 23.9391 119.675 24.2148 118.393 24.2148ZM117.974 14.0098C117.566 14.0098 117.229 14.2282 116.964 14.665C116.699 15.0947 116.545 15.7643 116.502 16.6738H119.402C119.388 15.8001 119.256 15.1377 119.005 14.6865C118.754 14.2354 118.411 14.0098 117.974 14.0098Z" transform="translate(1118 70)" fill="#5FA193"/>
<rect x="1" y="1" width="219" height="45" rx="7" transform="translate(1069 63)" stroke="#469987" stroke-width="2"/>
<g filter="url(#filter0_d)">
<rect width="353" height="75" rx="10" transform="translate(159 675)" fill="#469987"/>
<path d="M9.1244 27.2207V35H5.40565V15.0117H10.2728C12.3327 15.0117 13.8503 15.4993 14.8256 16.4746C15.8099 17.4499 16.3021 18.9401 16.3021 20.9453C16.3021 23.4701 15.4499 25.2337 13.7455 26.2363L17.5873 35H13.6088L10.4506 27.2207H9.1244ZM9.1244 24.0215H10.0814C10.9564 24.0215 11.5853 23.7754 11.9681 23.2832C12.351 22.7819 12.5424 22.0391 12.5424 21.0547C12.5424 20.0339 12.3373 19.3092 11.9271 18.8809C11.5261 18.4434 10.9017 18.2246 10.0541 18.2246H9.1244V24.0215ZM25.646 35.2734C23.7411 35.2734 22.2372 34.599 21.1343 33.25C20.0406 31.8919 19.4937 29.9733 19.4937 27.4941C19.4937 24.9785 19.9904 23.0143 20.9839 21.6016C21.9774 20.1888 23.3628 19.4824 25.1402 19.4824C26.799 19.4824 28.107 20.0885 29.064 21.3008C30.021 22.5039 30.4996 24.1947 30.4996 26.373V28.3145H23.1851C23.2124 29.6725 23.4904 30.6842 24.0191 31.3496C24.5477 32.0059 25.2769 32.334 26.2066 32.334C27.3915 32.334 28.6037 31.9648 29.8433 31.2266V34.2207C28.6766 34.9225 27.2775 35.2734 25.646 35.2734ZM25.1128 22.2852C24.5933 22.2852 24.1649 22.5632 23.8277 23.1191C23.4904 23.666 23.2945 24.5182 23.2398 25.6758H26.9312C26.913 24.5638 26.7443 23.7207 26.4253 23.1465C26.1063 22.5723 25.6688 22.2852 25.1128 22.2852ZM44.7106 19.7969V21.9297L42.8923 22.3398C43.2478 22.9779 43.4255 23.7799 43.4255 24.7461C43.4255 26.3594 42.988 27.6217 42.113 28.5332C41.238 29.4447 40.0166 29.9004 38.4489 29.9004C37.9932 29.9004 37.656 29.8639 37.4372 29.791C37.264 29.946 37.1 30.1191 36.945 30.3105C36.7901 30.502 36.7126 30.7389 36.7126 31.0215C36.7126 31.6595 37.264 31.9785 38.3669 31.9785H40.5681C41.8623 31.9785 42.8558 32.3294 43.5485 33.0312C44.2504 33.724 44.6013 34.7721 44.6013 36.1758C44.6013 37.944 44.0088 39.3112 42.8239 40.2773C41.639 41.2435 39.9346 41.7266 37.7106 41.7266C36.0244 41.7266 34.7256 41.3574 33.8142 40.6191C32.9027 39.89 32.447 38.8464 32.447 37.4883C32.447 36.6406 32.7067 35.8932 33.2263 35.2461C33.7458 34.6081 34.4659 34.1432 35.3864 33.8516C34.9216 33.6693 34.5388 33.3867 34.238 33.0039C33.9463 32.6211 33.8005 32.1745 33.8005 31.6641C33.8005 31.3542 33.8461 31.0762 33.9372 30.8301C34.0284 30.5749 34.156 30.3379 34.32 30.1191C34.4932 29.8913 34.8396 29.5586 35.3591 29.1211C34.7302 28.7383 34.2334 28.1504 33.8689 27.3574C33.5043 26.5645 33.322 25.6849 33.322 24.7188C33.322 23.0508 33.7595 21.7611 34.6345 20.8496C35.5095 19.9382 36.7627 19.4824 38.3942 19.4824C38.7041 19.4824 39.0596 19.5189 39.4606 19.5918C39.8617 19.6556 40.167 19.724 40.3767 19.7969H44.7106ZM35.7556 37.2148C35.7556 37.8164 35.9424 38.2767 36.3161 38.5957C36.6989 38.9238 37.2412 39.0879 37.9431 39.0879C39.0459 39.0879 39.8708 38.8783 40.4177 38.459C40.9737 38.0397 41.2517 37.4655 41.2517 36.7363C41.2517 36.1621 41.1013 35.7565 40.8005 35.5195C40.5088 35.2826 39.9574 35.1641 39.1462 35.1641H37.3825C36.8903 35.1641 36.4939 35.3464 36.1931 35.7109C35.9014 36.0846 35.7556 36.5859 35.7556 37.2148ZM36.8767 24.7461C36.8767 26.5417 37.3825 27.4395 38.3942 27.4395C39.3786 27.4395 39.8708 26.5326 39.8708 24.7188C39.8708 22.8594 39.3786 21.9297 38.3942 21.9297C37.3825 21.9297 36.8767 22.8685 36.8767 24.7461ZM51.0467 35H47.41V19.7695H51.0467V35ZM47.2596 15.791C47.2596 15.1895 47.4328 14.7155 47.7792 14.3691C48.1346 14.0137 48.6268 13.8359 49.2557 13.8359C49.8482 13.8359 50.3221 14.0137 50.6776 14.3691C51.0331 14.7155 51.2108 15.1895 51.2108 15.791C51.2108 16.4108 51.0285 16.8939 50.6639 17.2402C50.2993 17.5775 49.8299 17.7461 49.2557 17.7461C48.6542 17.7461 48.1711 17.5775 47.8065 17.2402C47.4419 16.8939 47.2596 16.4108 47.2596 15.791ZM63.1797 30.543C63.1797 32.0286 62.7422 33.1908 61.8672 34.0293C61.0013 34.8587 59.7207 35.2734 58.0254 35.2734C56.5215 35.2734 55.2774 34.9772 54.293 34.3848V31.2266C54.7943 31.5729 55.3776 31.86 56.043 32.0879C56.7175 32.3158 57.3099 32.4297 57.8203 32.4297C58.3854 32.4297 58.8138 32.293 59.1055 32.0195C59.4063 31.737 59.5567 31.3678 59.5567 30.9121C59.5567 30.4473 59.4017 30.0417 59.0918 29.6953C58.7819 29.349 58.2123 28.9251 57.3828 28.4238C56.28 27.7676 55.487 27.0703 55.0039 26.332C54.53 25.5846 54.293 24.7051 54.293 23.6934C54.293 22.3991 54.735 21.3737 55.6192 20.6172C56.5124 19.8607 57.7337 19.4824 59.2832 19.4824C60.6322 19.4824 61.9037 19.8379 63.0977 20.5488L61.9082 23.1602C60.933 22.6315 60.0762 22.3672 59.3379 22.3672C58.8731 22.3672 58.5222 22.4902 58.2852 22.7363C58.0573 22.9824 57.9434 23.2832 57.9434 23.6387C57.9434 24.0488 58.0847 24.4134 58.3672 24.7324C58.6589 25.0514 59.1966 25.4479 59.9805 25.9219C60.9284 26.4961 61.5938 26.9837 61.9766 27.3848C62.3594 27.7858 62.6556 28.2415 62.8653 28.752C63.0749 29.2624 63.1797 29.8594 63.1797 30.543ZM71.6076 32.1973C72.118 32.1973 72.6695 32.0697 73.2619 31.8145V34.6582C72.6695 35.0684 71.7808 35.2734 70.5959 35.2734C69.2743 35.2734 68.2945 34.8815 67.6564 34.0977C67.0184 33.3047 66.6994 32.1198 66.6994 30.543V22.6543H65.2228V21.0273L67.1232 19.7148L68.0529 16.4883H70.3771V19.7695H73.1389V22.6543H70.3771V30.666C70.3771 31.6868 70.7873 32.1973 71.6076 32.1973ZM81.8539 35.2734C79.9489 35.2734 78.445 34.599 77.3421 33.25C76.2484 31.8919 75.7015 29.9733 75.7015 27.4941C75.7015 24.9785 76.1983 23.0143 77.1917 21.6016C78.1852 20.1888 79.5706 19.4824 81.348 19.4824C83.0068 19.4824 84.3148 20.0885 85.2718 21.3008C86.2289 22.5039 86.7074 24.1947 86.7074 26.373V28.3145H79.3929C79.4203 29.6725 79.6983 30.6842 80.2269 31.3496C80.7555 32.0059 81.4847 32.334 82.4144 32.334C83.5993 32.334 84.8115 31.9648 86.0511 31.2266V34.2207C84.8845 34.9225 83.4854 35.2734 81.8539 35.2734ZM81.3206 22.2852C80.8011 22.2852 80.3727 22.5632 80.0355 23.1191C79.6983 23.666 79.5023 24.5182 79.4476 25.6758H83.139C83.1208 24.5638 82.9522 23.7207 82.6331 23.1465C82.3141 22.5723 81.8766 22.2852 81.3206 22.2852ZM96.4478 19.4824C96.8944 19.4824 97.3319 19.5508 97.7603 19.6875L97.3364 23.2148C97.0812 23.1237 96.7485 23.0781 96.3384 23.0781C95.4543 23.0781 94.7752 23.429 94.3013 24.1309C93.8273 24.8236 93.5903 25.8353 93.5903 27.166V35H89.9536V19.7695H92.9478L93.3579 22.1484H93.481C93.882 21.1914 94.3195 20.5078 94.7935 20.0977C95.2674 19.6875 95.8189 19.4824 96.4478 19.4824ZM120.55 35H116.831V26.2363H111.923V35H108.204V15.0117H111.923V22.9551H116.831V15.0117H120.55V35ZM130.331 35.2734C128.426 35.2734 126.922 34.599 125.819 33.25C124.726 31.8919 124.179 29.9733 124.179 27.4941C124.179 24.9785 124.675 23.0143 125.669 21.6016C126.662 20.1888 128.048 19.4824 129.825 19.4824C131.484 19.4824 132.792 20.0885 133.749 21.3008C134.706 22.5039 135.185 24.1947 135.185 26.373V28.3145H127.87C127.897 29.6725 128.175 30.6842 128.704 31.3496C129.233 32.0059 129.962 32.334 130.892 32.334C132.076 32.334 133.289 31.9648 134.528 31.2266V34.2207C133.362 34.9225 131.963 35.2734 130.331 35.2734ZM129.798 22.2852C129.278 22.2852 128.85 22.5632 128.513 23.1191C128.175 23.666 127.979 24.5182 127.925 25.6758H131.616C131.598 24.5638 131.429 23.7207 131.11 23.1465C130.791 22.5723 130.354 22.2852 129.798 22.2852ZM144.925 19.4824C145.372 19.4824 145.809 19.5508 146.237 19.6875L145.814 23.2148C145.558 23.1237 145.226 23.0781 144.816 23.0781C143.931 23.0781 143.252 23.429 142.778 24.1309C142.305 24.8236 142.068 25.8353 142.068 27.166V35H138.431V19.7695H141.425L141.835 22.1484H141.958C142.359 21.1914 142.797 20.5078 143.271 20.0977C143.745 19.6875 144.296 19.4824 144.925 19.4824ZM154.324 35.2734C152.419 35.2734 150.915 34.599 149.812 33.25C148.718 31.8919 148.171 29.9733 148.171 27.4941C148.171 24.9785 148.668 23.0143 149.661 21.6016C150.655 20.1888 152.04 19.4824 153.818 19.4824C155.477 19.4824 156.784 20.0885 157.742 21.3008C158.699 22.5039 159.177 24.1947 159.177 26.373V28.3145H151.863C151.89 29.6725 152.168 30.6842 152.697 31.3496C153.225 32.0059 153.954 32.334 154.884 32.334C156.069 32.334 157.281 31.9648 158.521 31.2266V34.2207C157.354 34.9225 155.955 35.2734 154.324 35.2734ZM153.79 22.2852C153.271 22.2852 152.842 22.5632 152.505 23.1191C152.168 23.666 151.972 24.5182 151.917 25.6758H155.609C155.59 24.5638 155.422 23.7207 155.103 23.1465C154.784 22.5723 154.346 22.2852 153.79 22.2852Z" transform="translate(252.835 688.393)" fill="white"/>
</g>
<g filter="url(#filter1_d)">
<path d="M44.6609 102.626C46.3986 88.7055 19.9184 150.044 15.442 167.74L53.3224 174.428C37.4918 171.633 41.0647 131.433 44.6609 102.626Z" transform="translate(892 256)" fill="#469987"/>
<path d="M128.707 21.5621C129.607 6.74278 103.449 79.8737 100.201 98.9111C116.975 100.676 139.847 109.068 136.044 101.734C123.907 78.3283 126.845 52.2305 128.707 21.5621Z" transform="translate(892 256)" fill="#469987"/>
<path d="M30.2762 387.98C18.4089 431.912 47.8076 464.501 76.577 472.153C95.9064 480.255 136.225 467.154 161.398 451.85C186.572 436.545 197.81 433.845 221.185 441.947C244.56 450.049 281.484 461.737 298.836 461.737C309.961 461.737 348.646 461.737 363.461 424.128C376.461 391.128 361.573 329.915 318.419 276.351C279.946 228.597 189.407 220.986 162.885 227.288C140.547 232.596 96.2179 259.697 67.8981 297.957C45.2423 328.565 39.2611 354.719 30.2762 387.98Z" transform="translate(892 256)" fill="#469987"/>
<path d="M55.86 263.935C55.9337 264.991 48.0144 294.007 37.2259 301.566C37.6191 307.197 17.0093 306.94 12.9517 301.566C8.89415 296.192 3.45495 277.744 1.71374 261.599C-0.0274668 245.453 -2.77224 227.196 7.18684 212.883C13.38 203.983 26.9827 201.949 41.6929 210.467C56.4032 218.986 55.7862 262.88 55.86 263.935Z" transform="translate(892 256)" fill="#469987"/>
<path d="M132.484 214.238C131.132 217.588 112.937 245.107 91.0054 223.672C83.3769 216.217 81.4419 212.729 82.4215 180.236C84.1732 122.134 111.929 124.472 120.673 124.114C129.418 123.755 134.628 137.838 135.386 162.01C136.144 186.183 133.835 210.888 132.484 214.238Z" transform="translate(892 256)" fill="#469987"/>
<path d="M173.072 134.067C174.678 124.284 177.08 114.746 184.364 105.094C189.065 98.865 202.199 96.2609 207.105 97.5773C213.238 99.2227 220.441 100.49 224.802 114.582C228.062 125.116 227.113 146.272 227.113 151.29C227.113 168.59 222.332 178.605 217.763 186.231C213.195 193.857 200.815 196.663 193.87 196.162C186.926 195.661 179.514 184.532 178.494 181.823C176.275 175.923 170.099 152.167 173.072 134.067Z" transform="translate(892 256)" fill="#469987"/>
<path d="M219.2 82.6202C212.327 80.7441 197.065 77.1786 180.289 79.2412C182.259 50.587 184.673 18.9649 194.451 2.67272L197.746 0C208.648 12.0832 216.591 60.1148 219.2 82.6202Z" transform="translate(892 256)" fill="#469987"/>
<path d="M260.413 177.712C260.27 167.799 258.771 156.095 265.714 146.194C270.195 139.805 280.669 135.99 285.618 137.134C291.804 138.564 299.311 146.895 302.607 154.437C305.902 161.978 309.323 171.817 310.864 189.048C312.404 206.279 309.642 220.35 305.341 228.131C301.041 235.912 286.707 232.213 279.75 231.954C272.792 231.696 268.459 226.899 264.479 220.349C260.622 214.003 260.774 202.733 260.413 177.712Z" transform="translate(892 256)" fill="#469987"/>
<path d="M302.875 120.966C295.781 120.313 276.79 120.046 260.626 124.994C269.236 100.578 272.971 94.4335 271.254 84.6813L267.42 43.3309C280.251 53.335 296.403 99.2557 302.875 120.966Z" transform="translate(892 256)" fill="#469987"/>
<path d="M340.186 246.676C340.043 236.763 338.593 227.246 345.536 217.345C350.016 210.956 360.49 207.141 365.439 208.285C371.625 209.716 379.133 218.047 382.428 225.588C385.724 233.13 389.144 242.968 390.685 260.199C392.226 277.431 389.463 291.501 385.163 299.282C380.863 307.063 365.407 304.508 359.582 300.69C353.749 296.866 349.467 291.548 345.487 284.998C341.619 278.634 340.547 271.697 340.186 246.676Z" transform="translate(892 256)" fill="#469987"/>
<path d="M386.982 193.196C379.952 192.049 361.645 189.389 345.177 193.196C355.467 169.44 356.04 164.723 355.007 154.874L352.819 118.476C364.922 129.352 382.039 171.087 386.982 193.196Z" transform="translate(892 256)" fill="#469987"/>
<rect width="10.0693" height="46.1769" rx="1" transform="translate(1087.07 541.803)" fill="#F2F4F4"/>
<path d="M30.5674 0C12.227 0 0 21.2847 0 38.9617C0 61.8744 18.5157 80.4488 41.3559 80.4488C64.1962 80.4488 82.7119 61.8744 82.7119 38.9617C82.7119 20.9239 71.5637 0 52.1444 0" transform="translate(1050.39 559.48)" stroke="#F2F4F4" stroke-width="10"/>
</g>
</g>
<defs>
<filter id="filter0_d" x="152" y="670" width="369" height="91" filterUnits="userSpaceOnUse" color-interpolation-filters="sRGB">
<feFlood flood-opacity="0" result="BackgroundImageFix"/>
<feColorMatrix in="SourceAlpha" type="matrix" values="0 0 0 0 0 0 0 0 0 0 0 0 0 0 0 0 0 0 255 0"/>
<feOffset dx="1" dy="3"/>
<feGaussianBlur stdDeviation="4"/>
<feColorMatrix type="matrix" values="0 0 0 0 0.18333 0 0 0 0 0.200873 0 0 0 0 0.194558 0 0 0 0.25 0"/>
<feBlend mode="normal" in2="BackgroundImageFix" result="effect1_dropShadow"/>
<feBlend mode="normal" in="SourceGraphic" in2="effect1_dropShadow" result="shape"/>
</filter>
<filter id="filter1_d" x="885" y="251" width="407.116" height="490.628" filterUnits="userSpaceOnUse" color-interpolation-filters="sRGB">
<feFlood flood-opacity="0" result="BackgroundImageFix"/>
<feColorMatrix in="SourceAlpha" type="matrix" values="0 0 0 0 0 0 0 0 0 0 0 0 0 0 0 0 0 0 255 0"/>
<feOffset dx="1" dy="3"/>
<feGaussianBlur stdDeviation="4"/>
<feColorMatrix type="matrix" values="0 0 0 0 0.221487 0 0 0 0 0.251092 0 0 0 0 0.240434 0 0 0 0.49 0"/>
<feBlend mode="normal" in2="BackgroundImageFix" result="effect1_dropShadow"/>
<feBlend mode="normal" in="SourceGraphic" in2="effect1_dropShadow" result="shape"/>
</filter>
<clipPath id="clip0">
<rect width="1440" height="900" fill="white"/>
</clipPath>
</defs>
</svg>
